<svg width="754" height="574" viewBox="0 0 754 574" fill="none" xmlns="http://www.w3.org/2000/svg">
<path d="M652.38 473H452V572.92H652.38V473Z" fill="#333333" stroke="#FFDD2D" stroke-width="0.57"/>
<path d="M553.29 519.84C552.32 519.47 551.06 519.36 549.69 519.36H542.06V516.99H555.17V512.91H536.68V530.55H549.2C550.94 530.55 552.24 530.4 553.21 530.03C555.25 529.25 556.62 527.36 556.62 524.88C556.62 522.4 555.33 520.62 553.29 519.84ZM550.62 525.96C550.33 526.07 549.92 526.11 549.4 526.11H542.06V523.29H549.4C549.99 523.29 550.47 523.33 550.84 523.51C551.28 523.73 551.51 524.14 551.51 524.66C551.51 525.18 551.25 525.74 550.62 525.96Z" fill="white"/>
<path d="M571.69 512.91H563.83L556.6 530.55H562.68L563.68 527.99H571.84L572.88 530.55H578.92L571.69 512.91ZM565.02 524.1L567.57 516.98H567.98L570.54 524.1H565.01H565.02Z" fill="white"/>
<path d="M585.84 523.99V530.55H580.46V512.91H585.84V519.36H594.47V512.91H599.85V530.55H594.47V523.99H585.84Z" fill="white"/>
<path d="M608.34 523.88V530.55H602.96V512.91H608.34V519.54H609.83L616.32 512.91H623.07L614.47 521.36L623.4 530.55H616.25L609.84 523.88H608.35H608.34Z" fill="white"/>
<path fill-rule="evenodd" clip-rule="evenodd" d="M526.61 501.57H483.77V523.12C483.77 528.64 486.72 533.75 491.5 536.51L505.19 544.42L518.88 536.51C523.66 533.75 526.61 528.64 526.61 523.12V501.57ZM495.52 519.61V512.91H514.85V519.61C513.94 518.58 512.27 517.88 510.37 517.88H508.3V525.67C508.3 527.74 508.86 529.55 509.69 530.55H500.68C501.51 529.55 502.08 527.74 502.08 525.67V517.88H500.01C498.11 517.88 496.44 518.58 495.52 519.61Z" fill="#FFDD2D"/>
<path d="M752.27 373.04H452V472.96H752.27V373.04Z" fill="#333333" stroke="#FFDD2D" stroke-width="0.57"/>
<path d="M540.89 423.75C540.89 428.48 539.5 433.11 536.87 437.05C534.24 440.99 530.5 444.06 526.13 445.88C521.75 447.7 516.93 448.18 512.28 447.26C507.63 446.34 503.36 444.07 500 440.72C496.65 437.38 494.36 433.12 493.43 428.48C492.5 423.84 492.97 419.03 494.79 414.66C496.6 410.29 499.67 406.55 503.61 403.92C507.56 401.29 512.19 399.89 516.93 399.89C523.28 399.89 529.36 402.4 533.86 406.88C538.35 411.36 540.88 417.43 540.9 423.76L540.89 423.75ZM556.82 420.11H560.65C561.12 420.14 561.59 420.08 562.04 419.92C562.49 419.77 562.9 419.52 563.25 419.21C563.6 418.89 563.88 418.51 564.08 418.08C564.27 417.65 564.39 417.19 564.4 416.72C564.45 415.93 564.19 415.16 563.69 414.55C563.19 413.94 562.47 413.55 561.69 413.45C562.27 413.22 562.76 412.82 563.1 412.31C563.45 411.79 563.62 411.18 563.6 410.56C563.6 410.13 563.49 409.71 563.32 409.32C563.14 408.93 562.89 408.58 562.58 408.29C562.27 408 561.9 407.78 561.5 407.63C561.1 407.48 560.67 407.42 560.25 407.44H556.84V420.15V420.11H556.82ZM558.24 408.82H559.79C561.19 408.82 562.15 409.51 562.15 410.83C562.18 411.1 562.13 411.37 562.04 411.63C561.95 411.89 561.8 412.11 561.61 412.31C561.42 412.5 561.18 412.65 560.93 412.74C560.67 412.83 560.4 412.87 560.13 412.85H558.22L558.24 408.83V408.82ZM558.24 418.74V414.22H560.2C560.53 414.18 560.87 414.22 561.19 414.31C561.51 414.4 561.82 414.56 562.07 414.78C562.33 414.99 562.55 415.26 562.7 415.55C562.85 415.85 562.95 416.17 562.98 416.51C562.98 417.99 561.73 418.75 560.19 418.75H558.23L558.24 418.74ZM570.71 412.82H568.37V407.42H566.96V420.15H570.71C571.21 420.18 571.7 420.1 572.17 419.93C572.64 419.76 573.06 419.49 573.42 419.15C573.79 418.81 574.07 418.4 574.27 417.94C574.46 417.48 574.56 416.99 574.56 416.5C574.56 416.01 574.46 415.51 574.27 415.06C574.07 414.6 573.79 414.19 573.42 413.85C573.06 413.51 572.64 413.24 572.17 413.07C571.7 412.9 571.21 412.82 570.71 412.85V412.81V412.82ZM573.12 416.5C573.12 417.98 572.04 418.74 570.51 418.74H568.37V414.22H570.51C570.84 414.18 571.16 414.22 571.48 414.31C571.79 414.41 572.08 414.57 572.32 414.78C572.56 414.99 572.76 415.26 572.9 415.56C573.03 415.86 573.11 416.18 573.12 416.5ZM577.62 420.11V407.44H576.21V420.15L577.62 420.11ZM586.93 420.39C587.98 420.39 589.02 420.12 589.94 419.64C590.87 419.15 591.68 418.45 592.28 417.59L591.21 416.79C590.57 417.7 589.65 418.39 588.6 418.75C587.54 419.11 586.4 419.12 585.33 418.79C584.26 418.45 583.34 417.79 582.68 416.89C582.02 415.99 581.66 414.91 581.66 413.79C581.66 412.67 582.02 411.59 582.68 410.69C583.34 409.79 584.27 409.13 585.33 408.79C586.4 408.45 587.54 408.47 588.6 408.83C589.65 409.19 590.57 409.87 591.21 410.79L592.28 410C591.62 409.07 590.74 408.32 589.71 407.83C588.68 407.34 587.54 407.13 586.41 407.21C585.28 407.29 584.17 407.66 583.22 408.29C582.27 408.92 581.49 409.78 580.98 410.79C580.46 411.8 580.21 412.93 580.25 414.07C580.3 415.21 580.63 416.31 581.23 417.28C581.83 418.25 582.67 419.04 583.67 419.59C584.67 420.14 585.8 420.42 586.93 420.41V420.39ZM594.84 407.45V420.16H609.89V407.45H608.48V418.74H603.06V407.45H601.65V418.74H596.31V407.45H594.84ZM613.74 420.16L615.23 416.51H620.15L621.66 420.16H623.23L617.89 407.49H617.42L612.19 420.16H613.73H613.74ZM617.7 410.48L619.58 415.09H615.81L617.7 410.48ZM632.37 415.34V420.15H633.78V407.44H630.13C629.6 407.43 629.08 407.52 628.59 407.72C628.1 407.91 627.66 408.2 627.27 408.57C626.89 408.94 626.59 409.38 626.39 409.86C626.18 410.34 626.07 410.86 626.07 411.39C626.07 412.29 626.4 413.15 626.99 413.83C627.58 414.51 628.39 414.96 629.28 415.1C628.29 415.47 627.39 418.77 625.63 418.77C625.47 418.77 625.31 418.75 625.16 418.7V420.15C625.39 420.23 625.64 420.27 625.89 420.26C628.87 420.26 629.67 415.85 630.85 415.34H632.37ZM630.23 413.97C629.88 413.99 629.53 413.95 629.2 413.83C628.87 413.71 628.57 413.53 628.31 413.3C628.04 413.06 627.83 412.78 627.69 412.46C627.54 412.14 627.46 411.8 627.45 411.45C627.45 411.1 627.54 410.75 627.68 410.43C627.83 410.11 628.04 409.82 628.3 409.58C628.56 409.34 628.87 409.16 629.2 409.04C629.53 408.92 629.88 408.87 630.23 408.89H632.37V413.99H630.23V413.97ZM641.9 407.49V420.16H656.95V407.45H655.54V418.74H650.14V407.45H648.76V418.74H643.34V407.45L641.9 407.49ZM661.65 420.16V414.26H662.9C664.47 414.26 665.9 420.27 669.13 420.27C669.4 420.27 669.67 420.24 669.93 420.16V418.75C669.77 418.79 669.6 418.81 669.44 418.82C667.04 418.82 665.78 413.78 664.09 413.55L669.44 407.49H667.8L663.03 412.89H661.69V407.49H660.29V420.16H661.64H661.65ZM671 413.75C671.02 415.03 671.43 416.27 672.16 417.31C672.89 418.36 673.9 419.17 675.1 419.64C676.29 420.11 677.59 420.22 678.84 419.96C680.09 419.7 681.24 419.07 682.13 418.16C683.02 417.25 683.63 416.09 683.87 414.84C684.1 413.59 683.97 412.29 683.48 411.11C682.98 409.93 682.15 408.93 681.08 408.22C680.02 407.51 678.77 407.14 677.49 407.14C676.62 407.14 675.77 407.32 674.98 407.65C674.19 407.98 673.46 408.47 672.86 409.09C672.26 409.7 671.78 410.43 671.46 411.23C671.14 412.03 670.98 412.88 671 413.75ZM672.44 413.75C672.47 412.76 672.8 411.8 673.37 411C673.95 410.19 674.76 409.58 675.68 409.22C676.61 408.87 677.62 408.79 678.58 409.01C679.54 409.23 680.43 409.72 681.12 410.43C681.81 411.14 682.28 412.04 682.46 413.02C682.64 413.99 682.54 415 682.14 415.91C681.76 416.82 681.11 417.6 680.28 418.15C679.45 418.7 678.49 418.99 677.49 418.99C676.81 418.99 676.14 418.85 675.52 418.58C674.89 418.31 674.33 417.93 673.86 417.44C673.39 416.95 673.03 416.37 672.78 415.74C672.54 415.11 672.42 414.43 672.45 413.76H672.43L672.44 413.75ZM685.06 418.67V420.15C685.34 420.21 685.63 420.25 685.91 420.26C688.41 420.26 689.88 418.13 689.88 408.81H694.97V420.15H696.36V407.44H688.52C688.52 416.62 687.45 418.83 685.62 418.83C685.42 418.81 685.23 418.77 685.04 418.7V418.67H685.06ZM700.23 420.16L701.72 416.51H706.65L708.15 420.16H709.74L704.39 407.49H703.93L698.59 420.16H700.23ZM704.18 410.48L706.07 415.09H702.31L704.19 410.48H704.18ZM556.41 437.16C557.22 438.31 558.37 439.17 559.71 439.62C561.05 440.07 562.49 440.08 563.83 439.66C565.17 439.24 566.35 438.4 567.18 437.26C568.01 436.13 568.46 434.76 568.46 433.35C568.46 431.94 568.01 430.57 567.18 429.44C566.35 428.31 565.17 427.47 563.83 427.04C562.49 426.62 561.04 426.63 559.71 427.08C558.37 427.53 557.22 428.39 556.41 429.54L557.48 430.34C558.06 429.5 558.89 428.84 559.85 428.47C560.81 428.1 561.86 428.01 562.86 428.23C563.87 428.45 564.79 428.97 565.5 429.71C566.22 430.45 566.69 431.39 566.87 432.4H560.45V433.78H566.98C566.9 434.85 566.48 435.86 565.79 436.68C565.11 437.5 564.19 438.1 563.15 438.38C562.12 438.66 561.02 438.62 560.01 438.26C559 437.9 558.13 437.23 557.51 436.36L556.4 437.16H556.41ZM572.45 439.69V433.79H573.7C575.28 433.79 576.7 439.8 579.94 439.8C580.21 439.8 580.47 439.76 580.73 439.69V438.27C580.57 438.31 580.41 438.34 580.25 438.34C577.84 438.34 576.59 433.31 574.91 433.08L580.25 427.02H578.54L573.79 432.41H572.45V426.99H571.05V439.66L572.44 439.69H572.45ZM581.83 433.35C581.86 434.63 582.26 435.86 582.98 436.91C583.71 437.96 584.73 438.77 585.93 439.24C587.12 439.71 588.42 439.82 589.67 439.56C590.91 439.3 592.07 438.67 592.96 437.76C593.85 436.85 594.46 435.7 594.7 434.44C594.94 433.19 594.81 431.89 594.32 430.71C593.82 429.53 592.99 428.53 591.92 427.82C590.86 427.11 589.61 426.74 588.33 426.74C587.47 426.74 586.62 426.92 585.83 427.25C585.04 427.58 584.32 428.07 583.72 428.68C583.12 429.29 582.64 430.02 582.33 430.81C582.01 431.61 581.85 432.45 581.87 433.31L581.84 433.34L581.83 433.35ZM583.27 433.35C583.3 432.36 583.63 431.4 584.2 430.6C584.78 429.79 585.58 429.18 586.5 428.82C587.43 428.47 588.44 428.39 589.41 428.61C590.38 428.82 591.26 429.32 591.95 430.03C592.64 430.74 593.11 431.64 593.29 432.62C593.47 433.59 593.37 434.6 592.97 435.51C592.59 436.42 591.94 437.2 591.11 437.75C590.28 438.3 589.32 438.59 588.32 438.59C587.64 438.59 586.97 438.44 586.34 438.17C585.72 437.9 585.16 437.51 584.7 437.02C584.23 436.53 583.87 435.95 583.63 435.31C583.39 434.68 583.28 434 583.31 433.32L583.26 433.35H583.27ZM598.93 427.02H597.52V439.69H598.93V433.79H606.69V439.69H608.1V426.99H606.69V432.38H598.93V427.02ZM610.81 433.35C610.83 434.63 611.24 435.86 611.97 436.91C612.7 437.96 613.72 438.77 614.91 439.24C616.1 439.71 617.4 439.82 618.65 439.56C619.9 439.3 621.05 438.67 621.94 437.76C622.84 436.85 623.44 435.7 623.68 434.44C623.92 433.19 623.78 431.89 623.29 430.71C622.8 429.53 621.96 428.53 620.9 427.82C619.83 427.11 618.58 426.74 617.3 426.74C616.44 426.74 615.6 426.92 614.8 427.25C614.01 427.58 613.29 428.07 612.69 428.68C612.1 429.29 611.62 430.02 611.3 430.81C610.98 431.61 610.82 432.45 610.83 433.31L610.8 433.34L610.81 433.35ZM612.24 433.35C612.27 432.36 612.6 431.4 613.18 430.6C613.76 429.79 614.56 429.18 615.48 428.82C616.41 428.47 617.42 428.39 618.38 428.61C619.34 428.83 620.23 429.32 620.93 430.03C621.61 430.74 622.08 431.64 622.27 432.62C622.45 433.59 622.34 434.6 621.95 435.51C621.56 436.42 620.92 437.2 620.08 437.75C619.25 438.3 618.29 438.59 617.29 438.59C616.61 438.59 615.94 438.45 615.31 438.18C614.68 437.91 614.13 437.52 613.65 437.03C613.18 436.54 612.82 435.96 612.58 435.32C612.34 434.68 612.23 434.01 612.26 433.33L612.23 433.36L612.24 433.35ZM625.97 439.69H627.41L628.17 431.15L632.44 439.69H633.04L637.32 431.15L638.08 439.69H639.51L638.37 427.02H637.79L632.76 437.12L627.76 427.02H627.16L625.97 439.69ZM643.74 426.99H642.32V439.66H643.74L650.95 429.45V439.66H652.37V426.99H650.95L643.74 437.23V426.99ZM657.01 439.65V433.75H658.26C659.83 433.75 661.25 439.76 664.49 439.76C664.76 439.76 665.02 439.72 665.29 439.65V438.23C665.13 438.27 664.96 438.3 664.8 438.3C662.38 438.3 661.13 433.27 659.45 433.04L664.8 426.98H663.1L658.34 432.37H657V426.98H655.6V439.65H657H657.01ZM668.93 426.99H667.52V439.66H668.93L676.15 429.45V439.66H677.56V426.99H676.15L668.93 437.23V426.99Z" fill="white"/>
<path d="M521.03 421.6C522.25 421.08 523.32 420.27 524.15 419.24C525.38 417.76 525.96 415.87 525.79 413.96C525.61 412.05 524.7 410.29 523.23 409.06C521.69 407.86 520.33 407.3 517.08 407.3H508.47V439.31H527.88V433.17C527.88 427.28 525.97 423.35 521.04 421.59L521.03 421.6ZM523.43 437.55H519.93V426.88H515.95V437.55H512.86V408.89H516.07C516.87 408.86 517.67 409 518.41 409.32C519.15 409.64 519.81 410.12 520.34 410.73C521.01 411.58 521.42 412.59 521.55 413.66H515.94V415.24H521.56C521.56 416.47 521.11 417.67 520.31 418.61C519.79 419.28 519.13 419.82 518.37 420.19C517.61 420.56 516.78 420.75 515.93 420.75V422.29C521.39 422.29 523.52 425.91 523.52 432.53L523.43 437.55Z" fill="#002F87"/>
<path d="M551.483 1H1V122.76H551.483V1Z" fill="#333333" stroke="#FFDD2D" stroke-width="0.57"/>
<path d="M41.3528 22.4691V34.1496H56.5606V22.4691H61.76V51.7862H56.5606V39.0073H41.3528V51.7862H36.1533V22.4691H41.3528Z" fill="white"/>
<path d="M68.9235 38.5923L67.0804 35.3701C69.5947 33.1487 71.9382 32.3188 75.2946 32.3188C80.9457 32.3188 82.5446 35.8339 82.5446 39.8617V51.7984H78.0164V49.333C76.4663 51.298 74.367 52.3843 72.1945 52.3843C68.6305 52.3843 66.2871 50.1263 66.2871 46.4403C66.2871 41.6192 69.5093 40.0691 78.0164 40.0325V39.9105C78.0164 37.3596 76.9301 36.2611 74.66 36.2611C72.6949 36.2611 71.0106 36.7249 68.9235 38.6045V38.5923ZM73.4394 48.6861C74.9895 48.6861 76.4175 47.8073 78.0042 45.5005V43.0716C72.3531 43.0716 70.7543 43.8284 70.7543 46.2572C70.7543 47.9293 71.7551 48.6861 73.4394 48.6861Z" fill="white"/>
<path d="M91.7474 32.8558V47.5632H100.206V32.8558H104.77V47.5632H107.541V57.0711H103.184V51.7984H87.1826V32.868H91.7474V32.8558Z" fill="white"/>
<path d="M124.043 51.7862V40.0203L114.998 51.7862H111.02V32.8558H115.584V44.5485L124.628 32.8558H128.607V51.7862H124.043Z" fill="white"/>
<path d="M132.587 42.3271C132.587 36.7981 136.944 32.3188 142.473 32.3188C148.002 32.3188 152.274 36.7981 152.274 42.3271C152.274 47.8561 148.002 52.3843 142.473 52.3843C136.944 52.3843 132.587 47.8195 132.587 42.3271ZM142.473 36.5906C139.373 36.5906 137.115 39.1904 137.115 42.3271C137.115 45.4639 139.373 48.0636 142.473 48.0636C145.573 48.0636 147.746 45.4273 147.746 42.3271C147.746 39.227 145.573 36.5906 142.473 36.5906Z" fill="white"/>
<path d="M156.203 51.7862V32.8558H160.768V39.8494H169.226V32.8558H173.791V51.7862H169.226V44.0847H160.768V51.7862H156.203Z" fill="white"/>
<path d="M180.42 38.5923L178.577 35.3701C181.091 33.1487 183.434 32.3188 186.791 32.3188C192.442 32.3188 194.041 35.8339 194.041 39.8617V51.7984H189.512V49.333C187.962 51.298 185.863 52.3843 183.691 52.3843C180.127 52.3843 177.783 50.1263 177.783 46.4403C177.783 41.6192 181.005 40.0691 189.512 40.0325V39.9105C189.512 37.3596 188.426 36.2611 186.156 36.2611C184.191 36.2611 182.507 36.7249 180.42 38.6045V38.5923ZM184.948 48.6861C186.498 48.6861 187.926 47.8073 189.512 45.5005V43.0716C183.861 43.0716 182.263 43.8284 182.263 46.2572C182.263 47.9293 183.263 48.6861 184.948 48.6861Z" fill="white"/>
<path d="M196.714 47.5144C197.092 47.6852 197.556 47.7219 197.849 47.7219C200.62 47.7219 201.279 44.0359 201.279 32.8558H215.815V51.7862H211.25V36.9568H205.55C205.55 47.014 203.671 52.1158 198.886 52.1158C198.178 52.1158 197.458 51.9937 196.714 51.7374V47.5022V47.5144Z" fill="white"/>
<path d="M229.886 51.7862H220.635V32.8558H225.2V39.3857H229.886C234.073 39.3857 236.416 42.2295 236.416 45.5371C236.416 48.8448 234.073 51.774 229.886 51.774V51.7862ZM229.178 43.2913H225.2V47.8561H229.264C230.936 47.8561 231.864 46.8919 231.864 45.5493C231.864 44.2067 230.899 43.2913 229.178 43.2913Z" fill="white"/>
<path d="M239.772 51.7862V32.8558H244.337V39.8494H252.796V32.8558H257.36V51.7862H252.796V44.0847H244.337V51.7862H239.772Z" fill="white"/>
<path d="M263.977 38.5923L262.134 35.3701C264.648 33.1487 266.992 32.3188 270.348 32.3188C275.999 32.3188 277.598 35.8339 277.598 39.8617V51.7984H273.07V49.333C271.52 51.298 269.421 52.3843 267.248 52.3843C263.684 52.3843 261.341 50.1263 261.341 46.4403C261.341 41.6192 264.563 40.0691 273.07 40.0325V39.9105C273.07 37.3596 271.984 36.2611 269.714 36.2611C267.749 36.2611 266.064 36.7249 263.977 38.6045V38.5923ZM268.505 48.6861C270.055 48.6861 271.483 47.8073 273.07 45.5005V43.0716C267.419 43.0716 265.82 43.8284 265.82 46.2572C265.82 47.9293 266.821 48.6861 268.505 48.6861Z" fill="white"/>
<path d="M288.814 32.8558H298.358V51.7862H293.83V45.5005H290.693C288.521 47.2581 287.386 52.1158 282.906 52.1158C282.357 52.1158 281.735 51.9449 281.063 51.7862V47.8439C281.442 48.0148 281.771 48.1002 282.113 48.1002C283.785 48.1002 284.627 45.9643 286.348 45.0001C283.456 44.0359 282.369 41.607 282.369 39.1782C282.369 35.8217 284.713 32.8558 288.814 32.8558ZM289.778 41.607H293.842V36.7859H289.741C287.862 36.7859 286.934 37.7501 286.934 39.0927C286.934 40.4353 287.898 41.607 289.778 41.607Z" fill="white"/>
<path d="M312.859 42.3271C312.859 36.7981 317.217 32.3188 322.746 32.3188C328.275 32.3188 332.547 36.7981 332.547 42.3271C332.547 47.8561 328.275 52.3843 322.746 52.3843C317.217 52.3843 312.859 47.8195 312.859 42.3271ZM322.746 36.5906C319.646 36.5906 317.388 39.1904 317.388 42.3271C317.388 45.4639 319.646 48.0636 322.746 48.0636C325.846 48.0636 328.018 45.4273 328.018 42.3271C328.018 39.227 325.846 36.5906 322.746 36.5906Z" fill="white"/>
<path d="M333.974 47.5144C334.352 47.6852 334.816 47.7219 335.109 47.7219C337.879 47.7219 338.538 44.0359 338.538 32.8558H353.075V51.7862H348.51V36.9568H342.81C342.81 47.014 340.931 52.1158 336.146 52.1158C335.438 52.1158 334.718 51.9937 333.974 51.7374V47.5022V47.5144Z" fill="white"/>
<path d="M370.92 51.7862V40.0203L361.875 51.7862H357.896V32.8558H362.461V44.5485L371.505 32.8558H375.484V51.7862H370.92Z" fill="white"/>
<path d="M401.323 32.8558L403.459 51.7862H398.858L397.686 40.5574L392.413 48.1002H390.985L385.713 40.5574L384.492 51.7862H379.891L382.063 32.8558H385.078L391.693 42.0708L398.308 32.8558H401.323Z" fill="white"/>
<path d="M407.901 51.7862V32.8558H425.489V51.7862H420.924V37.0911H412.466V51.7862H407.901Z" fill="white"/>
<path d="M443.296 51.7862V40.0203L434.252 51.7862H430.273V32.8558H434.838V44.5485L443.882 32.8558H447.861V51.7862H443.296Z" fill="white"/>
<path d="M454.476 38.5923L452.633 35.3701C455.148 33.1487 457.491 32.3188 460.847 32.3188C466.498 32.3188 468.097 35.8339 468.097 39.8617V51.7984H463.569V49.333C462.019 51.298 459.92 52.3843 457.747 52.3843C454.183 52.3843 451.84 50.1263 451.84 46.4403C451.84 41.6192 455.062 40.0691 463.569 40.0325V39.9105C463.569 37.3596 462.483 36.2611 460.213 36.2611C458.248 36.2611 456.563 36.7249 454.476 38.6045V38.5923ZM459.004 48.6861C460.554 48.6861 461.982 47.8073 463.569 45.5005V43.0716C457.918 43.0716 456.319 43.8284 456.319 46.2572C456.319 47.9293 457.32 48.6861 459.004 48.6861Z" fill="white"/>
<path d="M490.714 32.8558V47.5632H493.472V57.0711H489.115V51.7984H475.457V57.0711H471.308V47.5632H473.566C476.031 43.5843 475.994 37.7623 475.994 32.8558H490.702H490.714ZM478.484 47.5632H486.149V37.0911H480.449C480.449 40.9479 479.986 44.4142 478.484 47.5632Z" fill="white"/>
<path d="M498.795 38.5923L496.952 35.3701C499.466 33.1487 501.809 32.3188 505.166 32.3188C510.817 32.3188 512.416 35.8339 512.416 39.8617V51.7984H507.888V49.333C506.337 51.298 504.238 52.3843 502.066 52.3843C498.502 52.3843 496.158 50.1263 496.158 46.4403C496.158 41.6192 499.38 40.0691 507.888 40.0325V39.9105C507.888 37.3596 506.801 36.2611 504.531 36.2611C502.566 36.2611 500.882 36.7249 498.795 38.6045V38.5923ZM503.323 48.6861C504.873 48.6861 506.301 47.8073 507.888 45.5005V43.0716C502.236 43.0716 500.638 43.8284 500.638 46.2572C500.638 47.9293 501.638 48.6861 503.323 48.6861Z" fill="white"/>
<path d="M35.6152 93.6748V74.7444H53.2031V93.6748H48.6383V78.9796H40.18V93.6748H35.6152Z" fill="white"/>
<path d="M57.1943 84.2157C57.1943 78.6867 61.5516 74.2074 67.0806 74.2074C72.6096 74.2074 76.8815 78.6867 76.8815 84.2157C76.8815 89.7447 72.6096 94.2728 67.0806 94.2728C61.5516 94.2728 57.1943 89.7081 57.1943 84.2157ZM67.0806 78.467C63.9805 78.467 61.7225 81.0667 61.7225 84.2035C61.7225 87.3402 63.9805 89.94 67.0806 89.94C70.1808 89.94 72.3533 87.3036 72.3533 84.2035C72.3533 81.1033 70.1808 78.467 67.0806 78.467Z" fill="white"/>
<path d="M93.1266 80.4809L91.2836 77.2587C93.7979 75.0373 96.1413 74.2074 99.4977 74.2074C105.149 74.2074 106.748 77.7225 106.748 81.7502V93.687H102.22V91.2215C100.669 93.1866 98.5702 94.2728 96.3976 94.2728C92.8337 94.2728 90.4902 92.0149 90.4902 88.3289C90.4902 83.5078 93.7124 81.9577 102.22 81.9211V81.799C102.22 79.2481 101.133 78.1497 98.863 78.1497C96.898 78.1497 95.2137 78.6135 93.1266 80.4931V80.4809ZM97.6547 90.5746C99.2048 90.5746 100.633 89.6959 102.22 87.3891V84.9602C96.5685 84.9602 94.9696 85.7169 94.9696 88.1458C94.9696 89.8179 95.9704 90.5746 97.6547 90.5746Z" fill="white"/>
<path d="M111.386 93.6748V74.7444H115.951V81.738H124.409V74.7444H128.974V93.6748H124.409V85.9733H115.951V93.6748H111.386Z" fill="white"/>
<path d="M135.601 80.4809L133.758 77.2587C136.273 75.0373 138.616 74.2074 141.972 74.2074C147.623 74.2074 149.222 77.7225 149.222 81.7502V93.687H144.694V91.2215C143.144 93.1866 141.045 94.2728 138.872 94.2728C135.308 94.2728 132.965 92.0149 132.965 88.3289C132.965 83.5078 136.187 81.9577 144.694 81.9211V81.799C144.694 79.2481 143.608 78.1497 141.338 78.1497C139.373 78.1497 137.688 78.6135 135.601 80.4931V80.4809ZM140.129 90.5746C141.679 90.5746 143.107 89.6959 144.694 87.3891V84.9602C139.043 84.9602 137.444 85.7169 137.444 88.1458C137.444 89.8179 138.445 90.5746 140.129 90.5746Z" fill="white"/>
<path d="M151.895 89.4029C152.273 89.5738 152.737 89.6104 153.03 89.6104C155.8 89.6104 156.459 85.9244 156.459 74.7444H170.996V93.6748H166.431V78.8453H160.731C160.731 88.9025 158.852 94.0043 154.067 94.0043C153.359 94.0043 152.639 93.8823 151.895 93.626V89.3907V89.4029Z" fill="white"/>
<path d="M188.84 93.6748V81.9089L179.796 93.6748H175.817V74.7444H180.382V86.437L189.426 74.7444H193.405V93.6748H188.84Z" fill="white"/>
<path d="M204.378 82.2384C205.928 82.2384 206.892 81.3597 206.892 80.1025C206.892 78.8454 206.05 78.052 204.427 78.052C202.462 78.052 201.412 78.6745 199.74 80.4809C199.703 80.4443 197.14 77.9666 197.14 77.9666C199.313 75.4157 201.412 74.1951 204.768 74.1951C208.955 74.1951 211.262 76.5874 211.262 79.3824C211.262 81.3108 210.346 82.8121 208.833 83.7397C210.712 84.6551 211.896 86.254 211.896 88.1824C211.896 91.1971 209.59 94.2606 204.268 94.2606C201.205 94.2606 199.154 93.4185 196.811 90.953L199.069 88.1946C200.997 89.8667 201.998 90.4526 204.048 90.4526C206.099 90.4526 207.319 89.1954 207.319 87.7674C207.319 86.4737 206.062 85.6681 204.39 85.6681H201.925V82.2384H204.39H204.378Z" fill="white"/>
<path d="M220.879 93.3452L213.178 74.7444H218.121L223.357 87.5599L228.63 74.7444H233.536L221.477 103.354H216.656L220.891 93.3452H220.879Z" fill="white"/>
<path d="M264.696 74.7444V89.4518H267.455V98.9597H263.098V93.687H249.44V98.9597H245.29V89.4518H247.548C250.013 85.4728 249.977 79.6509 249.977 74.7444H264.684H264.696ZM252.467 89.4518H260.132V78.9796H254.432C254.432 82.8365 253.968 86.3028 252.467 89.4518Z" fill="white"/>
<path d="M272.777 80.4809L270.934 77.2587C273.448 75.0373 275.792 74.2074 279.148 74.2074C284.799 74.2074 286.398 77.7225 286.398 81.7502V93.687H281.87V91.2215C280.32 93.1866 278.221 94.2728 276.048 94.2728C272.484 94.2728 270.141 92.0149 270.141 88.3289C270.141 83.5078 273.363 81.9577 281.87 81.9211V81.799C281.87 79.2481 280.784 78.1497 278.513 78.1497C276.548 78.1497 274.864 78.6135 272.777 80.4931V80.4809ZM277.305 90.5746C278.855 90.5746 280.283 89.6959 281.87 87.3891V84.9602C276.219 84.9602 274.62 85.7169 274.62 88.1458C274.62 89.8179 275.621 90.5746 277.305 90.5746Z" fill="white"/>
<path d="M291.034 93.6748V74.7444H295.599V81.738H304.057V74.7444H308.622V93.6748H304.057V85.9733H295.599V93.6748H291.034Z" fill="white"/>
<path d="M313.407 93.6748V74.7444H317.972V81.738H326.43V74.7444H330.995V93.6748H326.43V85.9733H317.972V93.6748H313.407Z" fill="white"/>
<path d="M345.031 93.6748H335.779V74.7444H340.344V81.2742H345.031C349.217 81.2742 351.561 84.1181 351.561 87.4257C351.561 90.7333 349.217 93.6626 345.031 93.6626V93.6748ZM344.323 85.1677H340.344V89.7325H344.408C346.081 89.7325 347.008 88.7683 347.008 87.4257C347.008 86.0831 346.044 85.1677 344.323 85.1677ZM353.782 74.7444H358.31V93.6748H353.782V74.7444Z" fill="white"/>
<path d="M375.814 74.7444H381.599L374.642 83.996L381.892 93.6748H376.107L371.579 87.267L367.014 93.6748H361.229L368.478 83.996L361.57 74.7444H367.307L371.579 80.8592L375.814 74.7444Z" fill="white"/>
<path d="M753.29 122.99H2V373.03H753.29V122.99Z" fill="#333333" stroke="#FFDD2D" stroke-width="0.57"/>
<path fill-rule="evenodd" clip-rule="evenodd" d="M212.24 316.5L262.6 180.82H315.73L366.08 316.5H338.26L326.29 284.23H252.04L240.07 316.5H212.25H212.24ZM280.48 207.58L262.01 257.36H316.31L297.84 207.58H280.48Z" fill="#FFDD2D"/>
<path d="M377.401 180.91V246.05H404.451V207.77H409.761L463.531 316.39H511.801V180.9H484.751V289.52H479.041L425.251 180.9H377.391L377.401 180.91Z" fill="#FFDD2D"/>
<path d="M404.45 257.48H377.4V316.4H404.45V257.48Z" fill="white"/>
<path d="M79.4902 180.81H106.17V208.38H106.15V288.92H147.03C167.13 288.92 183.23 275.12 187.32 257.47H214.42C210.06 291.18 181.07 316.49 147.03 316.49H79.4902V180.81Z" fill="#FFDD2D"/>
<path d="M214.93 246.05C213.55 209.29 183.13 180.81 147.03 180.81H117.59V208.38H147.03C169.44 208.38 186.87 225.53 188.24 246.05H214.93Z" fill="white"/>
<path d="M568.061 185.88C577.621 180.36 587.921 177.29 598.241 176.47V202.52C592.341 203.26 586.491 205.16 581.021 208.32C559.081 220.98 551.571 249.03 564.231 270.97C576.891 292.9 604.941 300.42 626.871 287.76C638.621 280.98 646.231 269.79 648.821 257.48H675.101C672.261 278.8 659.901 298.61 639.831 310.2C605.501 330.02 561.601 318.26 541.781 283.93C521.961 249.6 533.721 205.7 568.051 185.88H568.061Z" fill="#FFDD2D"/>
<path d="M675.8 246.05C674.9 209.1 646.1 179.06 609.67 176.2V246.05H675.8Z" fill="white"/>
</svg>
