<svg width="1104" height="452" viewBox="0 0 1104 452" fill="none" xmlns="http://www.w3.org/2000/svg">
<path d="M1103.02 351.04H902.64V450.96H1103.02V351.04Z" fill="#333333" stroke="#FFDD2D" stroke-width="0.57"/>
<path d="M1003.93 397.88C1002.96 397.51 1001.7 397.4 1000.33 397.4H992.7V395.03H1005.81V390.95H987.32V408.59H999.84C1001.58 408.59 1002.88 408.44 1003.85 408.07C1005.89 407.29 1007.26 405.4 1007.26 402.92C1007.26 400.44 1005.97 398.66 1003.93 397.88ZM1001.26 404C1000.97 404.11 1000.56 404.15 1000.04 404.15H992.7V401.33H1000.04C1000.63 401.33 1001.11 401.37 1001.48 401.55C1001.92 401.77 1002.15 402.18 1002.15 402.7C1002.15 403.22 1001.89 403.78 1001.26 404Z" fill="white"/>
<path d="M1022.33 390.95H1014.47L1007.24 408.59H1013.32L1014.32 406.03H1022.48L1023.52 408.59H1029.56L1022.33 390.95ZM1015.66 402.14L1018.21 395.02H1018.62L1021.18 402.14H1015.65H1015.66Z" fill="white"/>
<path d="M1036.48 402.03V408.59H1031.1V390.95H1036.48V397.4H1045.11V390.95H1050.49V408.59H1045.11V402.03H1036.48Z" fill="white"/>
<path d="M1058.98 401.92V408.59H1053.6V390.95H1058.98V397.58H1060.47L1066.96 390.95H1073.71L1065.11 399.4L1074.04 408.59H1066.89L1060.48 401.92H1058.99H1058.98Z" fill="white"/>
<path fill-rule="evenodd" clip-rule="evenodd" d="M977.25 379.61H934.41V401.16C934.41 406.68 937.36 411.79 942.14 414.55L955.83 422.46L969.52 414.55C974.3 411.79 977.25 406.68 977.25 401.16V379.61ZM946.16 397.65V390.95H965.49V397.65C964.58 396.62 962.91 395.92 961.01 395.92H958.94V403.71C958.94 405.78 959.5 407.59 960.33 408.59H951.32C952.15 407.59 952.72 405.78 952.72 403.71V395.92H950.65C948.75 395.92 947.08 396.62 946.16 397.65Z" fill="#FFDD2D"/>
<path d="M902.64 351.04H602.37V450.96H902.64V351.04Z" fill="#333333" stroke="#FFDD2D" stroke-width="0.57"/>
<path d="M691.26 401.75C691.26 406.48 689.87 411.11 687.24 415.05C684.61 418.99 680.87 422.06 676.5 423.88C672.12 425.7 667.3 426.18 662.65 425.26C658 424.34 653.73 422.07 650.37 418.72C647.02 415.38 644.73 411.12 643.8 406.48C642.87 401.84 643.34 397.03 645.16 392.66C646.97 388.29 650.04 384.55 653.98 381.92C657.93 379.29 662.56 377.89 667.3 377.89C673.65 377.89 679.73 380.4 684.23 384.88C688.72 389.36 691.25 395.43 691.27 401.76L691.26 401.75ZM707.19 398.11H711.02C711.49 398.14 711.96 398.08 712.41 397.92C712.86 397.77 713.27 397.52 713.62 397.21C713.97 396.89 714.25 396.51 714.45 396.08C714.64 395.65 714.76 395.19 714.77 394.72C714.82 393.93 714.56 393.16 714.06 392.55C713.56 391.94 712.84 391.55 712.06 391.45C712.64 391.22 713.13 390.82 713.47 390.31C713.82 389.79 713.99 389.18 713.97 388.56C713.97 388.13 713.86 387.71 713.69 387.32C713.51 386.93 713.26 386.58 712.95 386.29C712.64 386 712.27 385.78 711.87 385.63C711.47 385.48 711.04 385.42 710.62 385.44H707.21V398.15V398.11H707.19ZM708.61 386.82H710.16C711.56 386.82 712.52 387.51 712.52 388.83C712.55 389.1 712.5 389.37 712.41 389.63C712.32 389.89 712.17 390.11 711.98 390.31C711.79 390.5 711.55 390.65 711.3 390.74C711.04 390.83 710.77 390.87 710.5 390.85H708.59L708.61 386.83V386.82ZM708.61 396.74V392.22H710.57C710.9 392.18 711.24 392.22 711.56 392.31C711.88 392.4 712.19 392.56 712.44 392.78C712.7 392.99 712.92 393.26 713.07 393.55C713.22 393.85 713.32 394.17 713.35 394.51C713.35 395.99 712.1 396.75 710.56 396.75H708.6L708.61 396.74ZM721.08 390.82H718.74V385.42H717.33V398.15H721.08C721.58 398.18 722.07 398.1 722.54 397.93C723.01 397.76 723.43 397.49 723.79 397.15C724.16 396.81 724.44 396.4 724.64 395.94C724.83 395.48 724.93 394.99 724.93 394.5C724.93 394.01 724.83 393.51 724.64 393.06C724.44 392.6 724.16 392.19 723.79 391.85C723.43 391.51 723.01 391.24 722.54 391.07C722.07 390.9 721.58 390.82 721.08 390.85V390.81V390.82ZM723.49 394.5C723.49 395.98 722.41 396.74 720.88 396.74H718.74V392.22H720.88C721.21 392.18 721.53 392.22 721.85 392.31C722.16 392.41 722.45 392.57 722.69 392.78C722.93 392.99 723.13 393.26 723.27 393.56C723.4 393.86 723.48 394.18 723.49 394.5ZM727.99 398.11V385.44H726.58V398.15L727.99 398.11ZM737.3 398.39C738.35 398.39 739.39 398.12 740.31 397.64C741.24 397.15 742.05 396.45 742.65 395.59L741.58 394.79C740.94 395.7 740.02 396.39 738.97 396.75C737.91 397.11 736.77 397.12 735.7 396.79C734.63 396.45 733.71 395.79 733.05 394.89C732.39 393.99 732.03 392.91 732.03 391.79C732.03 390.67 732.39 389.59 733.05 388.69C733.71 387.79 734.64 387.13 735.7 386.79C736.77 386.45 737.91 386.47 738.97 386.83C740.02 387.19 740.94 387.87 741.58 388.79L742.65 388C741.99 387.07 741.11 386.32 740.08 385.83C739.05 385.34 737.91 385.13 736.78 385.21C735.65 385.29 734.54 385.66 733.59 386.29C732.64 386.92 731.86 387.78 731.35 388.79C730.83 389.8 730.58 390.93 730.62 392.07C730.67 393.21 731 394.31 731.6 395.28C732.2 396.25 733.04 397.04 734.04 397.59C735.04 398.14 736.17 398.42 737.3 398.41V398.39ZM745.21 385.45V398.16H760.26V385.45H758.85V396.74H753.43V385.45H752.02V396.74H746.68V385.45H745.21ZM764.11 398.16L765.6 394.51H770.52L772.03 398.16H773.6L768.26 385.49H767.79L762.56 398.16H764.1H764.11ZM768.07 388.48L769.95 393.09H766.18L768.07 388.48ZM782.74 393.34V398.15H784.15V385.44H780.5C779.97 385.43 779.45 385.52 778.96 385.72C778.47 385.91 778.03 386.2 777.64 386.57C777.26 386.94 776.96 387.38 776.76 387.86C776.55 388.34 776.44 388.86 776.44 389.39C776.44 390.29 776.77 391.15 777.36 391.83C777.95 392.51 778.76 392.96 779.65 393.1C778.66 393.47 777.76 396.77 776 396.77C775.84 396.77 775.68 396.75 775.53 396.7V398.15C775.76 398.23 776.01 398.27 776.26 398.26C779.24 398.26 780.04 393.85 781.22 393.34H782.74ZM780.6 391.97C780.25 391.99 779.9 391.95 779.57 391.83C779.24 391.71 778.94 391.53 778.68 391.3C778.41 391.06 778.2 390.78 778.06 390.46C777.91 390.14 777.83 389.8 777.82 389.45C777.82 389.1 777.91 388.75 778.05 388.43C778.2 388.11 778.41 387.82 778.67 387.58C778.93 387.34 779.24 387.16 779.57 387.04C779.9 386.92 780.25 386.87 780.6 386.89H782.74V391.99H780.6V391.97ZM792.27 385.49V398.16H807.32V385.45H805.91V396.74H800.51V385.45H799.13V396.74H793.71V385.45L792.27 385.49ZM812.02 398.16V392.26H813.27C814.84 392.26 816.27 398.27 819.5 398.27C819.77 398.27 820.04 398.24 820.3 398.16V396.75C820.14 396.79 819.97 396.81 819.81 396.82C817.41 396.82 816.15 391.78 814.46 391.55L819.81 385.49H818.17L813.4 390.89H812.06V385.49H810.66V398.16H812.01H812.02ZM821.37 391.75C821.39 393.03 821.8 394.27 822.53 395.31C823.26 396.36 824.27 397.17 825.47 397.64C826.66 398.11 827.96 398.22 829.21 397.96C830.46 397.7 831.61 397.07 832.5 396.16C833.39 395.25 834 394.09 834.24 392.84C834.47 391.59 834.34 390.29 833.85 389.11C833.35 387.93 832.52 386.93 831.45 386.22C830.39 385.51 829.14 385.14 827.86 385.14C826.99 385.14 826.14 385.32 825.35 385.65C824.56 385.98 823.83 386.47 823.23 387.09C822.63 387.7 822.15 388.43 821.83 389.23C821.51 390.03 821.35 390.88 821.37 391.75ZM822.81 391.75C822.84 390.76 823.17 389.8 823.74 389C824.32 388.19 825.13 387.58 826.05 387.22C826.98 386.87 827.99 386.79 828.95 387.01C829.91 387.23 830.8 387.72 831.49 388.43C832.18 389.14 832.65 390.04 832.83 391.02C833.01 391.99 832.91 393 832.51 393.91C832.13 394.82 831.48 395.6 830.65 396.15C829.82 396.7 828.86 396.99 827.86 396.99C827.18 396.99 826.51 396.85 825.89 396.58C825.26 396.31 824.7 395.93 824.23 395.44C823.76 394.95 823.4 394.37 823.15 393.74C822.91 393.11 822.79 392.43 822.82 391.76H822.8L822.81 391.75ZM835.43 396.67V398.15C835.71 398.21 836 398.25 836.28 398.26C838.78 398.26 840.25 396.13 840.25 386.81H845.34V398.15H846.73V385.44H838.89C838.89 394.62 837.82 396.83 835.99 396.83C835.79 396.81 835.6 396.77 835.41 396.7V396.67H835.43ZM850.6 398.16L852.09 394.51H857.02L858.52 398.16H860.11L854.76 385.49H854.3L848.96 398.16H850.6ZM854.55 388.48L856.44 393.09H852.68L854.56 388.48H854.55ZM706.78 415.16C707.59 416.31 708.74 417.17 710.08 417.62C711.42 418.07 712.86 418.08 714.2 417.66C715.54 417.24 716.72 416.4 717.55 415.26C718.38 414.13 718.83 412.76 718.83 411.35C718.83 409.94 718.38 408.57 717.55 407.44C716.72 406.31 715.54 405.47 714.2 405.04C712.86 404.62 711.41 404.63 710.08 405.08C708.74 405.53 707.59 406.39 706.78 407.54L707.85 408.34C708.43 407.5 709.26 406.84 710.22 406.47C711.18 406.1 712.23 406.01 713.23 406.23C714.24 406.45 715.16 406.97 715.87 407.71C716.59 408.45 717.06 409.39 717.24 410.4H710.82V411.78H717.35C717.27 412.85 716.85 413.86 716.16 414.68C715.48 415.5 714.56 416.1 713.52 416.38C712.49 416.66 711.39 416.62 710.38 416.26C709.37 415.9 708.5 415.23 707.88 414.36L706.77 415.16H706.78ZM722.82 417.69V411.79H724.07C725.65 411.79 727.07 417.8 730.31 417.8C730.58 417.8 730.84 417.76 731.1 417.69V416.27C730.94 416.31 730.78 416.34 730.62 416.34C728.21 416.34 726.96 411.31 725.28 411.08L730.62 405.02H728.91L724.16 410.41H722.82V404.99H721.42V417.66L722.81 417.69H722.82ZM732.2 411.35C732.23 412.63 732.63 413.86 733.35 414.91C734.08 415.96 735.1 416.77 736.3 417.24C737.49 417.71 738.79 417.82 740.04 417.56C741.28 417.3 742.44 416.67 743.33 415.76C744.22 414.85 744.83 413.7 745.07 412.44C745.31 411.19 745.18 409.89 744.69 408.71C744.19 407.53 743.36 406.53 742.29 405.82C741.23 405.11 739.98 404.74 738.7 404.74C737.84 404.74 736.99 404.92 736.2 405.25C735.41 405.58 734.69 406.07 734.09 406.68C733.49 407.29 733.01 408.02 732.7 408.81C732.38 409.61 732.22 410.45 732.24 411.31L732.21 411.34L732.2 411.35ZM733.64 411.35C733.67 410.36 734 409.4 734.57 408.6C735.15 407.79 735.95 407.18 736.87 406.82C737.8 406.47 738.81 406.39 739.78 406.61C740.75 406.82 741.63 407.32 742.32 408.03C743.01 408.74 743.48 409.64 743.66 410.62C743.84 411.59 743.74 412.6 743.34 413.51C742.96 414.42 742.31 415.2 741.48 415.75C740.65 416.3 739.69 416.59 738.69 416.59C738.01 416.59 737.34 416.44 736.71 416.17C736.09 415.9 735.53 415.51 735.07 415.02C734.6 414.53 734.24 413.95 734 413.31C733.76 412.68 733.65 412 733.68 411.32L733.63 411.35H733.64ZM749.3 405.02H747.89V417.69H749.3V411.79H757.06V417.69H758.47V404.99H757.06V410.38H749.3V405.02ZM761.18 411.35C761.2 412.63 761.61 413.86 762.34 414.91C763.07 415.96 764.09 416.77 765.28 417.24C766.47 417.71 767.77 417.82 769.02 417.56C770.27 417.3 771.42 416.67 772.31 415.76C773.21 414.85 773.81 413.7 774.05 412.44C774.29 411.19 774.15 409.89 773.66 408.71C773.17 407.53 772.33 406.53 771.27 405.82C770.2 405.11 768.95 404.74 767.67 404.74C766.81 404.74 765.97 404.92 765.17 405.25C764.38 405.58 763.66 406.07 763.06 406.68C762.47 407.29 761.99 408.02 761.67 408.81C761.35 409.61 761.19 410.45 761.2 411.31L761.17 411.34L761.18 411.35ZM762.61 411.35C762.64 410.36 762.97 409.4 763.55 408.6C764.13 407.79 764.93 407.18 765.85 406.82C766.78 406.47 767.79 406.39 768.75 406.61C769.71 406.83 770.6 407.32 771.3 408.03C771.98 408.74 772.45 409.64 772.64 410.62C772.82 411.59 772.71 412.6 772.32 413.51C771.93 414.42 771.29 415.2 770.45 415.75C769.62 416.3 768.66 416.59 767.66 416.59C766.98 416.59 766.31 416.45 765.68 416.18C765.05 415.91 764.5 415.52 764.02 415.03C763.55 414.54 763.19 413.96 762.95 413.32C762.71 412.68 762.6 412.01 762.63 411.33L762.6 411.36L762.61 411.35ZM776.34 417.69H777.78L778.54 409.15L782.81 417.69H783.41L787.69 409.15L788.45 417.69H789.88L788.74 405.02H788.16L783.13 415.12L778.13 405.02H777.53L776.34 417.69ZM794.11 404.99H792.69V417.66H794.11L801.32 407.45V417.66H802.74V404.99H801.32L794.11 415.23V404.99ZM807.38 417.65V411.75H808.63C810.2 411.75 811.62 417.76 814.86 417.76C815.13 417.76 815.39 417.72 815.66 417.65V416.23C815.5 416.27 815.33 416.3 815.17 416.3C812.75 416.3 811.5 411.27 809.82 411.04L815.17 404.98H813.47L808.71 410.37H807.37V404.98H805.97V417.65H807.37H807.38ZM819.3 404.99H817.89V417.66H819.3L826.52 407.45V417.66H827.93V404.99H826.52L819.3 415.23V404.99Z" fill="white"/>
<path d="M671.4 399.6C672.62 399.08 673.69 398.27 674.52 397.24C675.75 395.76 676.33 393.87 676.16 391.96C675.98 390.05 675.07 388.29 673.6 387.06C672.06 385.86 670.7 385.3 667.45 385.3H658.84V417.31H678.25V411.17C678.25 405.28 676.34 401.35 671.41 399.59L671.4 399.6ZM673.8 415.55H670.3V404.88H666.32V415.55H663.23V386.89H666.44C667.24 386.86 668.04 387 668.78 387.32C669.52 387.64 670.18 388.12 670.71 388.73C671.38 389.58 671.79 390.59 671.92 391.66H666.31V393.24H671.93C671.93 394.47 671.48 395.67 670.68 396.61C670.16 397.28 669.5 397.82 668.74 398.19C667.98 398.56 667.15 398.75 666.3 398.75V400.29C671.76 400.29 673.89 403.91 673.89 410.53L673.8 415.55Z" fill="#002F87"/>
<path d="M452.02 1H1V100.76H452.02V1Z" fill="#333333" stroke="#FFDD2D" stroke-width="0.57"/>
<path d="M34.0598 18.5901V28.1601H46.5198V18.5901H50.7798V42.6101H46.5198V32.1401H34.0598V42.6101H29.7998V18.5901H34.0598Z" fill="white"/>
<path d="M56.6497 31.8001L55.1397 29.1602C57.1997 27.3402 59.1198 26.6602 61.8698 26.6602C66.4998 26.6602 67.8098 29.5401 67.8098 32.8401V42.6201H64.0998V40.5901C62.8298 42.2001 61.1097 43.1001 59.3297 43.1001C56.4097 43.1001 54.4897 41.2501 54.4897 38.2301C54.4897 34.2801 57.1298 33.0101 64.0998 32.9801V32.8802C64.0998 30.7902 63.2098 29.8901 61.3498 29.8901C59.7398 29.8901 58.3597 30.2702 56.6497 31.8102V31.8001ZM60.3498 40.0701C61.6198 40.0701 62.7898 39.3501 64.0898 37.4601V35.4702C59.4598 35.4702 58.1497 36.0901 58.1497 38.0801C58.1497 39.4501 58.9698 40.0701 60.3498 40.0701Z" fill="white"/>
<path d="M75.3499 27.1001V39.1401H82.2799V27.1001H86.0199V39.1401H88.2899V46.9301H84.7199V42.6101H71.6099V27.1001H75.3499Z" fill="white"/>
<path d="M101.81 42.6101V32.9701L94.3997 42.6101H91.1396V27.1001H94.8796V36.6701L102.29 27.1001H105.55V42.6101H101.81Z" fill="white"/>
<path d="M108.81 34.8601C108.81 30.3301 112.38 26.6602 116.91 26.6602C121.44 26.6602 124.94 30.3301 124.94 34.8601C124.94 39.3901 121.44 43.1001 116.91 43.1001C112.38 43.1001 108.81 39.3601 108.81 34.8601ZM116.91 30.1602C114.37 30.1602 112.52 32.2901 112.52 34.8601C112.52 37.4301 114.37 39.5602 116.91 39.5602C119.45 39.5602 121.23 37.4001 121.23 34.8601C121.23 32.3201 119.45 30.1602 116.91 30.1602Z" fill="white"/>
<path d="M128.16 42.6101V27.1001H131.9V32.8301H138.83V27.1001H142.57V42.6101H138.83V36.3001H131.9V42.6101H128.16Z" fill="white"/>
<path d="M148 31.8001L146.49 29.1602C148.55 27.3402 150.47 26.6602 153.22 26.6602C157.85 26.6602 159.16 29.5401 159.16 32.8401V42.6201H155.45V40.5901C154.18 42.2001 152.46 43.1001 150.68 43.1001C147.76 43.1001 145.84 41.2501 145.84 38.2301C145.84 34.2801 148.48 33.0101 155.45 32.9801V32.8802C155.45 30.7902 154.56 29.8901 152.7 29.8901C151.09 29.8901 149.71 30.2702 148 31.8102V31.8001ZM151.71 40.0701C152.98 40.0701 154.15 39.3501 155.45 37.4601V35.4702C150.82 35.4702 149.51 36.0901 149.51 38.0801C149.51 39.4501 150.33 40.0701 151.71 40.0701Z" fill="white"/>
<path d="M161.35 39.1101C161.66 39.2501 162.04 39.2801 162.28 39.2801C164.55 39.2801 165.09 36.2601 165.09 27.1001H177V42.6101H173.26V30.4601H168.59C168.59 38.7001 167.05 42.8801 163.13 42.8801C162.55 42.8801 161.96 42.7801 161.35 42.5701V39.1101Z" fill="white"/>
<path d="M188.53 42.6101H180.95V27.1001H184.69V32.4501H188.53C191.96 32.4501 193.88 34.7801 193.88 37.4901C193.88 40.2001 191.96 42.6001 188.53 42.6001V42.6101ZM187.95 35.6501H184.69V39.3901H188.02C189.39 39.3901 190.15 38.6001 190.15 37.5001C190.15 36.4001 189.36 35.6501 187.95 35.6501Z" fill="white"/>
<path d="M196.63 42.6101V27.1001H200.37V32.8301H207.3V27.1001H211.04V42.6101H207.3V36.3001H200.37V42.6101H196.63Z" fill="white"/>
<path d="M216.46 31.8001L214.95 29.1602C217.01 27.3402 218.93 26.6602 221.68 26.6602C226.31 26.6602 227.62 29.5401 227.62 32.8401V42.6201H223.91V40.5901C222.64 42.2001 220.92 43.1001 219.14 43.1001C216.22 43.1001 214.3 41.2501 214.3 38.2301C214.3 34.2801 216.94 33.0101 223.91 32.9801V32.8802C223.91 30.7902 223.02 29.8901 221.16 29.8901C219.55 29.8901 218.17 30.2702 216.46 31.8102V31.8001ZM220.17 40.0701C221.44 40.0701 222.61 39.3501 223.91 37.4601V35.4702C219.28 35.4702 217.97 36.0901 217.97 38.0801C217.97 39.4501 218.79 40.0701 220.17 40.0701Z" fill="white"/>
<path d="M236.81 27.1001H244.63V42.6101H240.92V37.4601H238.35C236.57 38.9001 235.64 42.8801 231.97 42.8801C231.52 42.8801 231.01 42.7401 230.46 42.6101V39.3801C230.77 39.5201 231.04 39.5901 231.32 39.5901C232.69 39.5901 233.38 37.8401 234.79 37.0501C232.42 36.2601 231.53 34.2701 231.53 32.2801C231.53 29.5301 233.45 27.1001 236.81 27.1001ZM237.6 34.2701H240.93V30.3201H237.57C236.03 30.3201 235.27 31.1101 235.27 32.2101C235.27 33.3101 236.06 34.2701 237.6 34.2701Z" fill="white"/>
<path d="M256.51 34.8601C256.51 30.3301 260.08 26.6602 264.61 26.6602C269.14 26.6602 272.64 30.3301 272.64 34.8601C272.64 39.3901 269.14 43.1001 264.61 43.1001C260.08 43.1001 256.51 39.3601 256.51 34.8601ZM264.61 30.1602C262.07 30.1602 260.22 32.2901 260.22 34.8601C260.22 37.4301 262.07 39.5602 264.61 39.5602C267.15 39.5602 268.93 37.4001 268.93 34.8601C268.93 32.3201 267.15 30.1602 264.61 30.1602Z" fill="white"/>
<path d="M273.81 39.1101C274.12 39.2501 274.5 39.2801 274.74 39.2801C277.01 39.2801 277.55 36.2601 277.55 27.1001H289.46V42.6101H285.72V30.4601H281.05C281.05 38.7001 279.51 42.8801 275.59 42.8801C275.01 42.8801 274.42 42.7801 273.81 42.5701V39.1101Z" fill="white"/>
<path d="M304.08 42.6101V32.9701L296.67 42.6101H293.41V27.1001H297.15V36.6701L304.56 27.1001H307.82V42.6101H304.08Z" fill="white"/>
<path d="M328.99 27.1001L330.74 42.6101H326.97L326.01 33.4101L321.69 39.5901H320.52L316.2 33.4101L315.2 42.6101H311.43L313.21 27.1001H315.68L321.1 34.6501L326.52 27.1001H328.99Z" fill="white"/>
<path d="M334.38 42.6101V27.1001H348.79V42.6101H345.05V30.5701H338.12V42.6101H334.38Z" fill="white"/>
<path d="M363.38 42.6101V32.9701L355.97 42.6101H352.71V27.1001H356.45V36.6701L363.86 27.1001H367.12V42.6101H363.38Z" fill="white"/>
<path d="M372.54 31.8001L371.03 29.1602C373.09 27.3402 375.01 26.6602 377.76 26.6602C382.39 26.6602 383.7 29.5401 383.7 32.8401V42.6201H379.99V40.5901C378.72 42.2001 377 43.1001 375.22 43.1001C372.3 43.1001 370.38 41.2501 370.38 38.2301C370.38 34.2801 373.02 33.0101 379.99 32.9801V32.8802C379.99 30.7902 379.1 29.8901 377.24 29.8901C375.63 29.8901 374.25 30.2702 372.54 31.8102V31.8001ZM376.25 40.0701C377.52 40.0701 378.69 39.3501 379.99 37.4601V35.4702C375.36 35.4702 374.05 36.0901 374.05 38.0801C374.05 39.4501 374.87 40.0701 376.25 40.0701Z" fill="white"/>
<path d="M402.23 27.1001V39.1401H404.49V46.9301H400.92V42.6101H389.73V46.9301H386.33V39.1401H388.18C390.2 35.8801 390.17 31.1101 390.17 27.1001H402.22H402.23ZM392.21 39.1501H398.49V30.5701H393.82C393.82 33.7301 393.44 36.5701 392.21 39.1501Z" fill="white"/>
<path d="M408.85 31.8001L407.34 29.1602C409.4 27.3402 411.32 26.6602 414.07 26.6602C418.7 26.6602 420.01 29.5401 420.01 32.8401V42.6201H416.3V40.5901C415.03 42.2001 413.31 43.1001 411.53 43.1001C408.61 43.1001 406.69 41.2501 406.69 38.2301C406.69 34.2801 409.33 33.0101 416.3 32.9801V32.8802C416.3 30.7902 415.41 29.8901 413.55 29.8901C411.94 29.8901 410.56 30.2702 408.85 31.8102V31.8001ZM412.56 40.0701C413.83 40.0701 415 39.3501 416.3 37.4601V35.4702C411.67 35.4702 410.36 36.0901 410.36 38.0801C410.36 39.4501 411.18 40.0701 412.56 40.0701Z" fill="white"/>
<path d="M29.3599 76.9302V61.4202H43.7699V76.9302H40.0299V64.8902H33.0999V76.9302H29.3599Z" fill="white"/>
<path d="M47.04 69.18C47.04 64.65 50.61 60.98 55.14 60.98C59.67 60.98 63.17 64.65 63.17 69.18C63.17 73.71 59.67 77.42 55.14 77.42C50.61 77.42 47.04 73.68 47.04 69.18ZM55.14 64.47C52.6 64.47 50.7501 66.6 50.7501 69.17C50.7501 71.74 52.6 73.87 55.14 73.87C57.68 73.87 59.4601 71.71 59.4601 69.17C59.4601 66.63 57.68 64.47 55.14 64.47Z" fill="white"/>
<path d="M76.4798 66.12L74.9698 63.48C77.0298 61.66 78.9498 60.98 81.6998 60.98C86.3298 60.98 87.6398 63.86 87.6398 67.16V76.94H83.9298V74.91C82.6598 76.52 80.9399 77.42 79.1599 77.42C76.2399 77.42 74.3198 75.57 74.3198 72.55C74.3198 68.6 76.9598 67.33 83.9298 67.3V67.2C83.9298 65.11 83.0398 64.21 81.1798 64.21C79.5698 64.21 78.1898 64.59 76.4798 66.13V66.12ZM80.1898 74.39C81.4598 74.39 82.6298 73.67 83.9298 71.78V69.79C79.2998 69.79 77.9898 70.41 77.9898 72.4C77.9898 73.77 78.8098 74.39 80.1898 74.39Z" fill="white"/>
<path d="M91.4399 76.9302V61.4202H95.1799V67.1502H102.11V61.4202H105.85V76.9302H102.11V70.6202H95.1799V76.9302H91.4399Z" fill="white"/>
<path d="M111.28 66.12L109.77 63.48C111.83 61.66 113.75 60.98 116.5 60.98C121.13 60.98 122.44 63.86 122.44 67.16V76.94H118.73V74.91C117.46 76.52 115.74 77.42 113.96 77.42C111.04 77.42 109.12 75.57 109.12 72.55C109.12 68.6 111.76 67.33 118.73 67.3V67.2C118.73 65.11 117.84 64.21 115.98 64.21C114.37 64.21 112.99 64.59 111.28 66.13V66.12ZM114.99 74.39C116.26 74.39 117.43 73.67 118.73 71.78V69.79C114.1 69.79 112.79 70.41 112.79 72.4C112.79 73.77 113.61 74.39 114.99 74.39Z" fill="white"/>
<path d="M124.63 73.4302C124.94 73.5702 125.32 73.6002 125.56 73.6002C127.83 73.6002 128.37 70.5802 128.37 61.4202H140.28V76.9302H136.54V64.7802H131.87C131.87 73.0202 130.33 77.2002 126.41 77.2002C125.83 77.2002 125.24 77.1002 124.63 76.8902V73.4302Z" fill="white"/>
<path d="M154.9 76.9302V67.2902L147.49 76.9302H144.23V61.4202H147.97V70.9902L155.38 61.4202H158.64V76.9302H154.9Z" fill="white"/>
<path d="M167.63 67.5602C168.9 67.5602 169.69 66.8402 169.69 65.8102C169.69 64.7802 169 64.1302 167.67 64.1302C166.06 64.1302 165.2 64.6502 163.83 66.1202C163.8 66.0902 161.7 64.0602 161.7 64.0602C163.48 61.9702 165.2 60.9702 167.95 60.9702C171.38 60.9702 173.27 62.9302 173.27 65.2202C173.27 66.8002 172.52 68.0302 171.28 68.7902C172.82 69.5402 173.79 70.8502 173.79 72.4302C173.79 74.9002 171.9 77.4102 167.54 77.4102C165.03 77.4102 163.35 76.7202 161.43 74.7002L163.28 72.4302C164.86 73.8002 165.68 74.2802 167.36 74.2802C169.04 74.2802 170.04 73.2502 170.04 72.0802C170.04 71.0202 169.01 70.3702 167.64 70.3702H165.62V67.5602H167.64H167.63Z" fill="white"/>
<path d="M181.15 76.6602L174.84 61.4202H178.89L183.18 71.9202L187.5 61.4202H191.52L181.64 84.8602H177.69L181.16 76.6602H181.15Z" fill="white"/>
<path d="M217.05 61.4202V73.4602H219.31V81.2502H215.74V76.9302H204.55V81.2502H201.15V73.4602H203C205.02 70.2002 204.99 65.4302 204.99 61.4202H217.04H217.05ZM207.03 73.4602H213.31V64.8802H208.64C208.64 68.0402 208.26 70.8802 207.03 73.4602Z" fill="white"/>
<path d="M223.67 66.12L222.16 63.48C224.22 61.66 226.14 60.98 228.89 60.98C233.52 60.98 234.83 63.86 234.83 67.16V76.94H231.12V74.91C229.85 76.52 228.13 77.42 226.35 77.42C223.43 77.42 221.51 75.57 221.51 72.55C221.51 68.6 224.15 67.33 231.12 67.3V67.2C231.12 65.11 230.23 64.21 228.37 64.21C226.76 64.21 225.38 64.59 223.67 66.13V66.12ZM227.38 74.39C228.65 74.39 229.82 73.67 231.12 71.78V69.79C226.49 69.79 225.18 70.41 225.18 72.4C225.18 73.77 226 74.39 227.38 74.39Z" fill="white"/>
<path d="M238.63 76.9302V61.4202H242.37V67.1502H249.3V61.4202H253.04V76.9302H249.3V70.6202H242.37V76.9302H238.63Z" fill="white"/>
<path d="M256.96 76.9302V61.4202H260.7V67.1502H267.63V61.4202H271.37V76.9302H267.63V70.6202H260.7V76.9302H256.96Z" fill="white"/>
<path d="M282.87 76.9302H275.29V61.4202H279.03V66.7702H282.87C286.3 66.7702 288.22 69.1002 288.22 71.8102C288.22 74.5202 286.3 76.9202 282.87 76.9202V76.9302ZM282.29 69.9602H279.03V73.7002H282.36C283.73 73.7002 284.49 72.9102 284.49 71.8102C284.49 70.7102 283.7 69.9602 282.29 69.9602ZM290.04 61.4202H293.75V76.9302H290.04V61.4202Z" fill="white"/>
<path d="M308.09 61.4202H312.83L307.13 69.0002L313.07 76.9302H308.33L304.62 71.6802L300.88 76.9302H296.14L302.08 69.0002L296.42 61.4202H301.12L304.62 66.4302L308.09 61.4202Z" fill="white"/>
<path d="M902.64 100.99H151.35V351.03H902.64V100.99Z" fill="#333333" stroke="#FFDD2D" stroke-width="0.57"/>
<path fill-rule="evenodd" clip-rule="evenodd" d="M361.59 294.5L411.95 158.82H465.08L515.43 294.5H487.61L475.64 262.23H401.39L389.42 294.5H361.6H361.59ZM429.83 185.58L411.36 235.36H465.66L447.19 185.58H429.83Z" fill="#FFDD2D"/>
<path d="M526.75 158.91V224.05H553.8V185.77H559.11L612.88 294.39H661.15V158.9H634.1V267.52H628.39L574.6 158.9H526.74L526.75 158.91Z" fill="#FFDD2D"/>
<path d="M553.8 235.48H526.75V294.4H553.8V235.48Z" fill="white"/>
<path d="M228.84 158.81H255.52V186.38H255.5V266.92H296.38C316.48 266.92 332.58 253.12 336.67 235.47H363.77C359.41 269.18 330.42 294.49 296.38 294.49H228.84V158.81Z" fill="#FFDD2D"/>
<path d="M364.28 224.05C362.9 187.29 332.48 158.81 296.38 158.81H266.94V186.38H296.38C318.79 186.38 336.22 203.53 337.59 224.05H364.28Z" fill="white"/>
<path d="M717.41 163.88C726.97 158.36 737.27 155.29 747.59 154.47V180.52C741.69 181.26 735.84 183.16 730.37 186.32C708.43 198.98 700.92 227.03 713.58 248.97C726.24 270.9 754.29 278.42 776.22 265.76C787.97 258.98 795.58 247.79 798.17 235.48H824.45C821.61 256.8 809.25 276.61 789.18 288.2C754.85 308.02 710.95 296.26 691.13 261.93C671.31 227.6 683.07 183.7 717.4 163.88H717.41Z" fill="#FFDD2D"/>
<path d="M825.15 224.05C824.25 187.1 795.45 157.06 759.02 154.2V224.05H825.15Z" fill="white"/>
</svg>
