<svg xmlns="http://www.w3.org/2000/svg" viewBox="0 0 113.39 101.21"><defs><style>.cls-1{fill:#004784;}</style></defs><g id="Слой_2" data-name="Слой 2"><g id="Слой_1-2" data-name="Слой 1"><path class="cls-1" d="M113.12,13.84c-1.41-.8-2.82-1.6-4.23-2.42a1.28,1.28,0,0,0-.63-.16h-1.2c-.27,0-.31-.06-.28-.31a.54.54,0,0,1,.47-.52c.26,0,.33-.19.36-.41a6.43,6.43,0,0,0,0-1.64,5.65,5.65,0,0,0-5.09-4.85c-.33,0-.35,0-.27-.38a.85.85,0,0,1,0-.17,2.81,2.81,0,0,0,0-2.15A6.09,6.09,0,0,0,102,0c-.05,0-.08.06-.09.08,0,.17-.09.34-.15.51a3.43,3.43,0,0,0-.07,2.54c.14.35.1.36-.26.4a5.68,5.68,0,0,0-5.09,6.36c0,.31.07.56.46.53a.26.26,0,0,1,.12.05.57.57,0,0,1,.25.66c-.07.24-.27.1-.41.13a1.61,1.61,0,0,1-.31,0H74.09a.62.62,0,0,1-.49-.16,2.43,2.43,0,0,1,1-.44l.79-.1c.14,0,.29-.05.32-.19a1.76,1.76,0,0,0,.06-.79.33.33,0,0,0-.28-.25l-.44-.07A5.5,5.5,0,0,1,71.92,8a.94.94,0,0,0-.67-.18c-.34,0-.34,0-.34.36q0,3.84,0,7.68c0,.34,0,.35.34.35h2.88c.62,0,.56.1.56-.58,0-.3,0-.3-.33-.31h-.18c-.24,0-.33-.09-.36-.34a.76.76,0,0,1,.62-.89,4,4,0,0,1,2,0,2.89,2.89,0,0,0,.9.22c1-.06,2.07,0,3.1,0a1.66,1.66,0,0,0,1-.18.64.64,0,0,1,.34-.09,4,4,0,0,1,1.54.11,3.81,3.81,0,0,0,1.3.16c.85,0,1.71,0,2.57,0,.16,0,.32,0,.42-.16s.2-.11.32-.14a4.39,4.39,0,0,1,1.84,0c.1,0,.25.06.27.13.1.25.3.2.48.2h2.88c.23,0,.43,0,.56-.23s.25-.15.39-.2a4.16,4.16,0,0,1,1.36-.11,1.82,1.82,0,0,1,1.09.33,1,1,0,0,0,.58.15h2.75a1,1,0,0,0,.74-.19,1.11,1.11,0,0,1,.49-.18,5.81,5.81,0,0,1,2.2,0c.09,0,.21,0,.22.13,0,.27.22.23.39.23h2.93a.71.71,0,0,0,.64-.2.85.85,0,0,1,.48-.21,3.66,3.66,0,0,1,1.58,0,.34.34,0,0,1,.31.39c0,.51,0,1,0,1.51q0,14.61,0,29.21c0,.56,0,.49-.49.49s-.57.08-.57-.56V15.71c0-.35,0-.36-.37-.36h-4.44c-.67,0-.66,0-.61.66,0,.17.08.24.24.23H108c.3,0,.3,0,.31.29s0,.33-.32.33h-4.08c-.36,0-.36,0-.36.37,0,3.74,0,7.49,0,11.23,0,.38,0,.38.39.38h3.86c.1,0,.21,0,.31,0s.19.09.2.23-.18.22-.33.22h-4c-.39,0-.39,0-.4.39v8.87a2.43,2.43,0,0,1,0,.27c0,.21.08.3.29.28h4.08c.39,0,.39,0,.4.4s0,.49-.47.49h-3.82c-.47,0-.47,0-.48.49,0,1.29,0,2.58,0,3.87,0,.38,0,.38.38.39h4c.44,0,.44,0,.43.44s0,.35-.34.35H71.16c-.18,0-.26.07-.26.26s0,.56,0,.84-.06.24-.23.24-.31,0-.31-.33V40.15a.88.88,0,0,0-.94-.95h-.58c-1,0-.85.21-.87-.93a.27.27,0,0,1,0-.09c0-.13.07-.18.19-.18h1.47c.1,0,.21,0,.25-.12.11-.35,0-.53-.37-.54H43.73c-.28,0-.25.17-.26.35s0,.32.26.31.56,0,.84,0,.59-.12.76.07.06.51.06.77,0,.36-.38.36-.68,0-1,0a.9.9,0,0,0-1,1v6.53c0,.11-.07.14-.17.16-.3,0-.36,0-.36-.32,0-.13,0-.27,0-.4,0-.71.1-.61-.6-.61H5.24c-.06,0-.14,0-.16-.05a1.11,1.11,0,0,1,0-.65c0-.14.2-.09.31-.09,1.35,0,2.69,0,4,0,.39,0,.39,0,.39-.39,0-1.31,0-2.63,0-4,0-.4,0-.41-.42-.41H5.24C5.1,40,5,39.91,5,39.77s-.12-.48.13-.65c0,0,.11,0,.17,0H9.42c.37,0,.37,0,.37-.36q0-4.56,0-9.1c0-.35,0-.35-.38-.35H5.24c-.15,0-.2-.07-.21-.22s.16-.23.33-.23h4c.4,0,.4,0,.4-.37q0-5.62,0-11.23c0-.38,0-.38-.4-.38H5.17A.14.14,0,0,1,5,16.76a.35.35,0,0,1,.34-.52H9.5c.25,0,.32-.1.3-.31,0,0,0-.09,0-.14,0-.46,0-.44-.42-.44H5c-.68,0-.6-.1-.6.58v28.9c0,.13,0,.26,0,.39s0,.34-.29.31H3.91c-.68,0-.59.1-.59-.57q0-14.52,0-29c0-.54,0-1.07,0-1.6,0-.23.07-.35.3-.4a4,4,0,0,1,1.54,0,1,1,0,0,1,.6.27.51.51,0,0,0,.43.15H9.25c.16,0,.35,0,.39-.22s.18-.13.3-.15a6.43,6.43,0,0,1,1.45-.09,2.08,2.08,0,0,1,1.34.4.43.43,0,0,0,.29.06h3.15a.57.57,0,0,0,.4-.13,1.5,1.5,0,0,1,.69-.29,4.33,4.33,0,0,1,1.72,0,.75.75,0,0,1,.58.35c.05.11.14.1.23.1h3.28c.09,0,.2,0,.23-.08s.26-.22.43-.27a4.66,4.66,0,0,1,1.58,0c.18,0,.4,0,.5.17s.29.16.46.16H28.8a2.84,2.84,0,0,0,1.29-.16,1.37,1.37,0,0,1,.57-.1,2.58,2.58,0,0,1,1.64.23.42.42,0,0,0,.25.05c1.17,0,2.34-.06,3.5,0a.85.85,0,0,0,.31-.06,4.71,4.71,0,0,1,2-.26,1.24,1.24,0,0,1,1,.43.8.8,0,0,1,.08.72c-.09.25-.31.17-.49.18-.33,0-.33,0-.34.35v.18c0,.35,0,.36.37.36h3c.39,0,.39,0,.39-.39,0-1.52,0-3,0-4.57,0-1,0-2,0-3,0-.4,0-.41-.42-.41a.93.93,0,0,0-.69.26,3.06,3.06,0,0,1-.7.47,6.06,6.06,0,0,1-2.36.68c-.75.08-.83.19-.72.93,0,.23.14.35.36.37s.56,0,.84.1a2,2,0,0,1,1,.47,1.51,1.51,0,0,1-.84.14H16.61c-.41,0-.53-.16-.4-.53a.47.47,0,0,1,.47-.34c.25,0,.29-.13.32-.33a5.69,5.69,0,0,0-4.5-6.46,5.36,5.36,0,0,0-.7-.09c-.18,0-.23-.09-.18-.26s.15-.57.22-.86a1.22,1.22,0,0,0,.09-.52c-.14-.63-.32-1.25-.49-1.87h-.09a.61.61,0,0,0,0,.12c-.07.24-.12.49-.21.72a2.75,2.75,0,0,0,0,2.07.85.85,0,0,1,0,.17c.09.38.09.4-.3.43A5.67,5.67,0,0,0,5.74,9.88c0,.29.09.52.46.59s.39.27.39.56,0,.24-.23.24H5.12a1.29,1.29,0,0,0-.67.18L.29,13.82c-.38.22-.38.35,0,.62a1.18,1.18,0,0,0,.19.11,1.74,1.74,0,0,0,.9.19c.31,0,.36,0,.38.35s0,.54,0,.8v31c0,.74-.12.67.66.67,13.52,0,27,.06,40.56,0,.53,0,1.06,0,1.59,0H111c.73,0,.62.05.62-.62v-31c0-.22,0-.45,0-.67,0-.48,0-.5.51-.49a1.5,1.5,0,0,0,1-.36c.3-.25.29-.34,0-.54M98.86,11.27c-.43,0-.45,0-.44-.39s.11-.45.41-.44.47.19.46.57,0,.26-.43.26m6.66,0c-.36,0-.36,0-.36-.27s.16-.53.34-.54.45.28.45.56,0,.25-.43.25m-91.38-.61a.46.46,0,0,1,.53-.21c.22,0,.27.19.28.38,0,.4,0,.44-.44.44s-.56-.24-.37-.61m-6.28-.2c.19,0,.34.23.35.53s0,.28-.4.28-.39,0-.39-.24.22-.57.44-.57M46.55,38.65c0-.66,0-.66.69-.66H66.53c.25,0,.31.09.29.31s.11.62,0,.81-.54.08-.81.08H47.11c-.63,0-.56.05-.56-.54M68,46.52c0,.32,0,.32-.32.33h-.26c-.17,0-.25-.06-.24-.23V41.51c0-.1,0-.2,0-.31s0-.19-.18-.19H65.63c-.11,0-.16.05-.17.16v5.41c0,.1,0,.23-.12.25a.66.66,0,0,1-.44,0,.18.18,0,0,1-.06-.16V41.42c0-.41,0-.41-.42-.41H64c-.58,0-.53-.07-.53.51,0,1,0,2,0,3.06,0,.62,0,1.24,0,1.87,0,.13.08.33-.11.38a1.06,1.06,0,0,1-.61,0c-.06,0-.07-.09-.07-.15V41.55c0-.11,0-.23,0-.35s0-.19-.18-.19h-1c-.16,0-.21.08-.2.22v5.06c0,.1,0,.2,0,.31s-.14.25-.32.25-.33,0-.31-.25,0-.21,0-.31c0-1.65,0-3.29,0-4.93,0-.34,0-.35-.33-.35h-.85c-.16,0-.24.05-.24.22s0,.24,0,.36c0,1.63,0,3.25,0,4.88,0,.36,0,.37-.27.38s-.34,0-.35-.35V41.44c0-.46,0-.44-.43-.43-.25,0-.56-.11-.73.05s-.07.5-.08.76v4.79c0,.17-.07.24-.24.24l-.93,0c-.14,0-.22,0-.22-.21V41.39c0-.38,0-.39-.35-.38s-.62-.12-.82.05-.07.54-.07.81c0,1.47,0,2.93,0,4.39v.27c0,.11,0,.26-.12.3a.7.7,0,0,1-.43,0c-.06,0-.07-.1-.07-.16s0-.23,0-.35V41.2c0-.12,0-.19-.17-.19H52.88c-.13,0-.17.08-.17.2v5.06c0,.1,0,.21,0,.31s0,.23-.11.25a.73.73,0,0,1-.44,0s-.06-.09-.06-.15,0-.24,0-.36V41.2c0-.13,0-.19-.18-.19h-1c-.16,0-.2.08-.2.22s0,.21,0,.31v4.88c0,.14.08.33-.1.4a1.25,1.25,0,0,1-.61,0c-.06,0-.08-.08-.08-.15s0-.23,0-.35v-5.1c0-.15-.05-.22-.2-.22h-1c-.15,0-.21.07-.21.22s0,.2,0,.31v5c0,.33,0,.34-.3.34s-.32,0-.32-.34V41.72c0-.71,0-.72-.73-.71-.3,0-.69-.13-.89.08s-.06.56-.06.85c0,1.45,0,2.9,0,4.35,0,.1,0,.21,0,.31s0,.24-.22.25c-.58,0-.6,0-.6-.54V40.68c0-.17.06-.25.23-.24h21.7a2,2,0,0,0,.35,0c.25,0,.3.1.3.32,0,1.92,0,3.85,0,5.77m1.45-39.7c-1.53-.76-3-1.52-4.59-2.22A12.77,12.77,0,0,0,59.1,3.41q-2.41.06-4.83,0a12.23,12.23,0,0,0-5.07.91c-.9.37-1.79.78-2.67,1.21s-1.82.92-2.73,1.37a.56.56,0,0,0-.35.55c0,.46,0,.92,0,1.38V36.57c0,.52,0,.49.51.49H47.1c.62,0,.54,0,.54-.56q0-12.32,0-24.63A3.79,3.79,0,0,1,48,10.28a4,4,0,0,1,2.39-2.34,6.89,6.89,0,0,1,2-.39c1.34-.06,2.69-.08,4-.08s2.66,0,4,0A8,8,0,0,1,63.12,8a4.3,4.3,0,0,1,2.61,3.8V33.71c0,.93,0,1.86,0,2.79,0,.6-.08.56.53.56h3.07c.68,0,.6.06.6-.58V8.91c0-.42,0-.85,0-1.28a.77.77,0,0,0-.51-.81m27.4,22h4c.16,0,.25,0,.24-.22s0-.21,0-.31V17.21c0-.34,0-.35-.34-.35h-4c-.32,0-.33,0-.33.36V28.49c0,.35,0,.35.38.35m-79.89-.48V17.26c0-.4,0-.4-.42-.4H13c-.13,0-.26,0-.4,0s-.31.09-.29.31,0,.21,0,.31V28.35c0,.55-.05.49.51.49,1.21,0,2.43,0,3.64,0,.51,0,.47.06.47-.48M83.25,17.44v5.41c0,1.87,0,3.73,0,5.59,0,.4,0,.4.37.4,1.23,0,2.45,0,3.68,0,.34,0,.34,0,.35-.33V17.11c0-.2-.08-.26-.26-.25s-.45,0-.67,0H83.57c-.31,0-.31,0-.32.32a2.25,2.25,0,0,0,0,.26M30.13,28.25V22.88c0-1.89,0-3.78,0-5.67,0-.34,0-.35-.34-.35H26.19c-.52,0-.47,0-.47.48V28.56c0,.21.06.29.27.29h1.6c.74,0,1.48,0,2.22,0,.31,0,.31,0,.31-.32a2.44,2.44,0,0,0,0-.27m44.56-11c0-.43,0-.43-.44-.43h-3.1c-.16,0-.25.05-.25.23s0,.23,0,.35v11c0,.4,0,.4.42.4h3.11c.18,0,.28,0,.26-.24s0-.21,0-.31v-11m-32.56-.43H39c-.34,0-.34,0-.35.34V28.55c0,.2,0,.3.27.3h3.28c.16,0,.25-.05.23-.23V22.85c0-1.88,0-3.76,0-5.63,0-.35,0-.36-.33-.36M96.82,39.1h3.82c.42,0,.42,0,.42-.45v-9c0-.4,0-.4-.38-.4H96.82c-.37,0-.38,0-.38.35v9.1c0,.36,0,.36.38.36m-84,0h3.77c.37,0,.38,0,.38-.36V29.65c0-.36,0-.36-.38-.36H12.69c-.37,0-.38,0-.38.4v9c0,.45,0,.45.47.45m17-9.81H26.1c-.38,0-.38,0-.38.39v9c0,.37,0,.38.36.38h3.68c.36,0,.36,0,.36-.37,0-3,0-6,0-9,0-.39,0-.39-.38-.39m53.51.55v4.35c0,1.51,0,3,0,4.52,0,.38,0,.39.35.39h3.72c.32,0,.33,0,.33-.36V29.65c0-.36,0-.36-.37-.36H83.51c-.22,0-.28.09-.27.29a2.26,2.26,0,0,1,0,.26M93.78,17.13c0-.18,0-.27-.25-.27H90.34a.17.17,0,0,0-.17.16V28.33c0,.56-.06.51.49.51.87,0,1.74,0,2.62,0,.55,0,.5.05.5-.49v-11a1.61,1.61,0,0,1,0-.22m-16.66.22V28.49c0,.34,0,.35.34.35.65,0,1.3,0,2,0h1.11c.16,0,.25-.05.24-.22s0-.21,0-.31v-11c0-.55,0-.49-.47-.49H77.63c-.55,0-.51-.06-.51.49m-40.87-.22c0-.22-.08-.28-.29-.27-.45,0-.91,0-1.37,0H33c-.41,0-.41,0-.42.4V28.4c0,.5,0,.44.46.44.91,0,1.81,0,2.71,0,.52,0,.47,0,.47-.48v-11a1.62,1.62,0,0,1,0-.22m-13,.24a2.25,2.25,0,0,1,0-.26c0-.2-.08-.25-.26-.25H19.83c-.16,0-.25.05-.24.23s0,.2,0,.31v11c0,.46,0,.44.42.44.95,0,1.89,0,2.84,0,.34,0,.34,0,.35-.33V17.37ZM71.3,39.1h3c.42,0,.42,0,.42-.41V29.74c0-.5,0-.45-.46-.45H71.3c-.39,0-.39,0-.39.38q0,4.53,0,9c0,.39,0,.39.39.39M42.46,29.67c0-.38,0-.38-.39-.38h-3c-.37,0-.38,0-.38.35v9.09c0,.36,0,.37.37.37H42c.56,0,.48,0,.48-.47,0-1.48,0-3,0-4.43s0-3,0-4.53m38-.38H77.53c-.41,0-.41,0-.41.41v9c0,.4,0,.4.39.4h2.84c.4,0,.41,0,.41-.41V29.63c0-.33,0-.34-.34-.34M32.94,39.1h3c.32,0,.33,0,.33-.36v-9.1c0-.35,0-.35-.38-.35H33c-.42,0-.42,0-.42.44v9c0,.35,0,.36.33.36m60.33-9.81H90.39c-.15,0-.22.05-.22.2v9.18c0,.43,0,.43.44.43H93.4c.37,0,.38,0,.38-.37V29.78c0-.55,0-.49-.51-.49M23.2,34.17V29.69c0-.4,0-.4-.38-.4H20c-.38,0-.39,0-.39.39v9c0,.38,0,.38.4.38h2.8c.41,0,.41,0,.41-.41V34.17M37.37,8.11a8.11,8.11,0,0,0,2.82-.17A15.51,15.51,0,0,0,44.1,6.22,41.41,41.41,0,0,1,48.21,4a17.5,17.5,0,0,1,6.46-1.36c.71,0,1.42,0,2.13,0a19.48,19.48,0,0,1,7.42,1,27.75,27.75,0,0,1,4.17,2,29.35,29.35,0,0,0,2.92,1.58,8.79,8.79,0,0,0,3.8.89l.8-.05c.17,0,.37,0,.36-.23s-.21-.19-.37-.18A8.41,8.41,0,0,1,72,6.9,36.41,36.41,0,0,1,68.57,5a20.86,20.86,0,0,0-6.44-2.51,16.88,16.88,0,0,0-2.25-.29,1.43,1.43,0,0,1-1.05-.49A4,4,0,0,1,58.3,1C58.19.76,58.06.54,58,.32a.33.33,0,0,0-.31-.21c-.56,0-1.12,0-1.69,0a.69.69,0,0,0-.64.43,6.86,6.86,0,0,1-.65,1.11,1.53,1.53,0,0,1-1.13.61l-1.32.15a17.39,17.39,0,0,0-5.77,1.79C45,4.9,43.6,5.74,42.17,6.51A8.67,8.67,0,0,1,37.42,7.7h-.18a.17.17,0,0,0-.15.13.18.18,0,0,0,.08.2.35.35,0,0,0,.2.07M69.42,48.2H44c-.44,0-.44,0-.44.43v.09c0,.61-.07.54.54.54h25c.69,0,.69,0,.68-.67,0-.39,0-.39-.39-.39m27-5.86c0,.7,0,1.39,0,2.08,0,.21,0,.32.29.32,1.34,0,2.68,0,4,0,.23,0,.3-.08.3-.31,0-1.37,0-2.74,0-4.12,0-.3,0-.32-.34-.32h-4c-.24,0-.3.09-.3.31,0,.68,0,1.36,0,2M12.66,44.73c1.31,0,2.63,0,3.94,0,.32,0,.32,0,.33-.31V40.34c0-.34,0-.35-.34-.35h-3.9c-.37,0-.38,0-.38.37v4c0,.34,0,.34.35.34m70.87,0c1.29,0,2.57,0,3.86,0,.18,0,.27-.05.27-.25,0-1.41,0-2.81,0-4.22,0-.21-.09-.28-.29-.28H83.55c-.29,0-.3,0-.3.35,0,.67,0,1.33,0,2s0,1.39,0,2.08c0,.21,0,.32.29.32M26,44.74c1.27,0,2.55,0,3.82,0,.23,0,.3-.08.3-.31,0-.68,0-1.36,0-2s0-1.39,0-2.08c0-.23-.07-.32-.3-.32H26c-.24,0-.31.09-.31.32,0,1.37,0,2.75,0,4.12,0,.23.07.31.3.31M48.84,12.69h4.7c.2,0,.29,0,.29-.27,0-1.16,0-2.31,0-3.46,0-.2,0-.31-.27-.31-.76,0-1.53,0-2.3,0A3.18,3.18,0,0,0,48.5,12.4c0,.22.12.29.34.29m13.26-4c-.73-.07-1.47,0-2.21,0-.34,0-.35,0-.35.35v3.32c0,.35,0,.35.38.36h4.53c.37,0,.37,0,.43-.39A3.18,3.18,0,0,0,62.1,8.68m8.81,35.7c0,.34,0,.35.33.35h3.14c.22,0,.32-.06.32-.3,0-1.37,0-2.75,0-4.12,0-.31,0-.32-.33-.33h-3.1c-.35,0-.35,0-.35.35,0,.68,0,1.36,0,2s0,1.33,0,2M39,44.74c1.06,0,2.13,0,3.19,0,.24,0,.3-.09.3-.31,0-1.36,0-2.72,0-4.08,0-.35,0-.36-.34-.36H39c-.33,0-.34,0-.34.37v2c0,.7,0,1.39,0,2.09,0,.23.08.3.31.3m-6.07,0h3c.32,0,.33,0,.33-.35v-4c0-.35,0-.35-.34-.36h-3c-.32,0-.33,0-.33.32,0,1.38,0,2.75,0,4.12,0,.23.06.31.3.31m44.21-2.36v2c0,.21,0,.32.28.32,1,0,2.07,0,3.1,0,.2,0,.26-.07.26-.26,0-1.4,0-2.81,0-4.21,0-.21-.07-.28-.28-.28H77.42c-.22,0-.31.08-.31.31,0,.69,0,1.39,0,2.08M22.87,40H20c-.35,0-.35,0-.36.35v4.08c0,.3,0,.31.33.31,1,0,1.95,0,2.93,0,.34,0,.35,0,.35-.33V40.32c0-.31,0-.32-.33-.33m70.6,0h-3c-.32,0-.33,0-.33.33V44.4c0,.32,0,.33.31.33q1.48,0,3,0c.32,0,.33,0,.33-.31V40.34c0-.33,0-.34-.31-.35M57.73,29.83c0,.24.08.31.31.31.53,0,1.06,0,1.59,0,.34,0,.35,0,.35-.35,0-1,0-2,0-3s0-2,0-3c0-.33,0-.34-.34-.34-.53,0-1.07,0-1.6,0-.22,0-.31.06-.31.3,0,2,0,4.07,0,6.11m-2.27-6.4h-1.9c-.11,0-.17.05-.17.16v.35c0,1.89,0,3.78,0,5.67a2.43,2.43,0,0,1,0,.27c0,.19.08.26.27.26.54,0,1.09,0,1.64,0,.33,0,.34,0,.34-.35,0-1,0-2,0-3V23.59c0-.11-.06-.16-.17-.16m5.29,3.9c0,.8,0,1.6,0,2.4,0,.4,0,.4.42.41h1.28c.42,0,.42,0,.42-.41,0-1,0-1.95,0-2.93V23.87c0-.46,0-.44-.42-.44H61.22c-.48,0-.46-.06-.46.44,0,1.16,0,2.31,0,3.46m-8.13,2.36V23.83c0-.4,0-.4-.42-.4H50.82c-.33,0-.33,0-.33.35,0,1,0,2.1,0,3.15s0,1.86,0,2.8c0,.4,0,.4.42.41h1.24c.51,0,.47,0,.47-.45M18,16.86h0c-.16,0-.21.08-.2.22V28.62c0,.17.07.24.24.22h.26c.52,0,.47,0,.47-.48,0-3.61,0-7.22,0-10.83,0-.77.17-.66-.73-.67M95.58,28.27c0-3.58,0-7.16,0-10.74,0-.72,0-.72-.72-.67h0c-.15,0-.21.08-.2.22V28.44c0,.4,0,.41.37.4.7,0,.6.09.6-.57m-70.69-11c0-.39,0-.39-.39-.39s-.47,0-.47.49V28.66c0,.1,0,.18.15.18h.57a.12.12,0,0,0,.13-.14c0-.12,0-.24,0-.36V17.25M88.48,22.8v5.64c0,.4,0,.4.42.4s.44,0,.44-.46v-11a1.08,1.08,0,0,0,0-.31c-.06-.29-.31-.14-.47-.15s-.35-.1-.37.17,0,.24,0,.36ZM10.63,17.35c0,3.67,0,7.33,0,11v.31c0,.1,0,.18.14.18h.58c.09,0,.12-.06.13-.14V17.25c0-.39,0-.39-.39-.39s-.46,0-.46.49m91.26,0v11c0,.4,0,.4.37.4.54,0,.48,0,.48-.47q0-5.52,0-11c0-.51.05-.47-.48-.47h-.13c-.16,0-.25.05-.24.23s0,.2,0,.31M94.61,34.88v3.81c0,.41,0,.41.42.41h0c.58,0,.51,0,.51-.49,0-2.93,0-5.86,0-8.79,0-.61.07-.52-.55-.53-.45,0-.42,0-.42.44v5.15ZM18.34,39.1c.42,0,.42,0,.42-.45V29.73c0-.46,0-.45-.42-.44-.62,0-.55-.08-.55.53,0,2.91,0,5.83,0,8.74,0,.58-.09.54.55.54m13-22.24h-.09c-.22,0-.3.08-.28.28a1.09,1.09,0,0,1,0,.18c0,3.68,0,7.37,0,11.05,0,.49,0,.49.48.47h.13c.14,0,.18-.07.18-.19V17.29c0-.48,0-.43-.43-.43m45,.17c0-.1-.06-.15-.16-.17-.49-.09-.61,0-.61.48V28.65a.17.17,0,0,0,.18.19c.53.07.59,0,.59-.5V17m-38.44.23c0-.41,0-.41-.42-.4h-.18a.16.16,0,0,0-.17.16V28.38c0,.49,0,.49.49.46h0c.17,0,.25-.05.24-.23s0-.23,0-.35v-11m44,11.59c.69,0,.55,0,.55-.53q0-5.46,0-10.92c0-.57,0-.6-.6-.54h0c-.11,0-.15.08-.15.18V28.62c0,.17.07.23.24.23m6.62,9.77c0,.1,0,.21,0,.31s0,.13.08.14a1.16,1.16,0,0,0,.69,0c.15-.07.08-.27.08-.41V31c0-.47,0-.94,0-1.41,0-.22-.07-.3-.28-.28a2.43,2.43,0,0,1-.27,0c-.3,0-.3,0-.31.33v9Zm13.41-8.84v9.13c0,.06,0,.13.07.15a1.38,1.38,0,0,0,.7,0c.06,0,.08-.08.08-.14s0-.23,0-.35V34.19c0-1.51,0-3,0-4.52,0-.37,0-.38-.35-.38-.56,0-.5-.05-.5.49m-77,0a2.43,2.43,0,0,1,0-.27c0-.15-.08-.21-.22-.2h-.22c-.41,0-.42,0-.42.4v9c0,.37,0,.37.37.37s.49,0,.49-.48V29.76m-13.63-.47H11c-.41,0-.41,0-.41.4,0,1.51,0,3,0,4.52s0,3,0,4.52c0,.37,0,.37.37.37s.48,0,.48-.48V29.49c0-.15-.07-.21-.22-.2M64.87,23.5c-.19-.19-.54-.06-.81-.07s-.37,0-.38.4v5.41c0,1,0,1,1,.9.19,0,.26-.1.25-.28s0-.2,0-.31c0-1.76,0-3.52,0-5.28,0-.26.12-.59,0-.77m-15.24,0c-.19-.19-.53-.06-.81-.07s-.37,0-.38.4v3c0,1,0,2,0,3,0,.22.05.33.29.32s.48,0,.71,0,.25-.06.25-.23,0-.21,0-.32c0-1.77,0-3.54,0-5.32,0-.26.12-.6,0-.77M31.75,38.69c0-1.5,0-3,0-4.52v-.31c0-1.41,0-2.81,0-4.22,0-.35,0-.35-.33-.35s-.46,0-.46.44q0,4.47,0,8.92v.27a.15.15,0,0,0,.07.15,1.06,1.06,0,0,0,.61,0c.19,0,.11-.25.11-.39m49.87-9v9.05c0,.36,0,.36.37.36h.13c.2,0,.32-.05.3-.27a1.61,1.61,0,0,1,0-.22V29.78c0-.11,0-.21,0-.31s0-.14-.06-.15a1.14,1.14,0,0,0-.66,0c-.14.05-.07.24-.07.37m-5.33.12V29.5c0-.16-.07-.2-.22-.21-.51-.05-.55,0-.55.49v9.13c0,.08,0,.15.11.17a1,1,0,0,0,.57,0c.16-.07.09-.26.09-.4V29.81M37.85,38.69V29.48c0-.13-.07-.18-.19-.19-.53-.07-.58,0-.58.51v9.13c0,.06,0,.13.09.14a.88.88,0,0,0,.6,0c.14-.07.08-.24.08-.37M59.75,17H58c-.16,0-.25,0-.25.22,0,.91,0,1.83,0,2.74,0,.17.07.24.24.24h1.77c.2,0,.25-.09.25-.27,0-.44,0-.88,0-1.33s0-.91,0-1.37c0-.17-.07-.24-.24-.23M55.4,17H53.63c-.16,0-.25,0-.25.22,0,.91,0,1.83,0,2.74,0,.17.07.24.24.24h1.77c.2,0,.25-.09.25-.27,0-.44,0-.88,0-1.33V17.18c0-.17-.06-.24-.23-.23m7.49.28c0-.21-.07-.29-.28-.29-.53,0-1.07,0-1.6,0-.19,0-.26.06-.26.25,0,.45,0,.89,0,1.33s0,.92,0,1.38c0,.16.06.24.23.24h1.64c.19,0,.27-.06.27-.26,0-.89,0-1.77,0-2.66M52.62,18.55c0-.45,0-.89,0-1.33,0-.18,0-.28-.25-.27-.54,0-1.09,0-1.64,0-.2,0-.25.09-.25.27,0,.88,0,1.77,0,2.66,0,.23.1.27.3.27.51,0,1,0,1.55,0,.25,0,.29-.11.29-.32,0-.43,0-.86,0-1.28m4.07,11.59c.21,0,.29-.08.28-.29s0-.21,0-.31c0-1.83,0-3.66,0-5.49,0-.72.11-.61-.63-.62-.36,0-.37,0-.37.36v3c0,.89,0,1.77,0,2.66,0,.74-.17.67.73.68m3,3.64H58c-.19,0-.26.07-.26.26,0,.78,0,1.57,0,2.35,0,.18,0,.27.25.27h1.77c.17,0,.24-.07.24-.23,0-.39,0-.77,0-1.16s0-.8,0-1.2c0-.19-.05-.3-.27-.29m-6.07,2.88h1.73c.19,0,.26-.07.26-.26,0-.38,0-.77,0-1.15s0-.8,0-1.2c0-.17,0-.28-.25-.27H53.62c-.17,0-.24.07-.24.24,0,.8,0,1.59,0,2.39,0,.2.09.25.27.25m9-2.88H61c-.17,0-.27,0-.27.25,0,.79,0,1.59,0,2.38,0,.16,0,.25.22.25h1.68c.17,0,.24-.07.23-.24V35.27c0-.4,0-.8,0-1.19,0-.2-.06-.31-.27-.3m-11.9,2.88h1.69c.14,0,.21-.06.21-.21q0-1.22,0-2.43c0-.17-.07-.24-.24-.24H50.75c-.19,0-.27.07-.26.26v1.15c0,.4,0,.8,0,1.19,0,.18,0,.28.24.28M64.67,14a.14.14,0,0,0,.16-.16c0-.12,0-.21-.16-.22h-16c-.14,0-.17.1-.16.22a.14.14,0,0,0,.16.16h16m-9.6-1.38c.2.18.59,0,.9.06s.29-.1.29-.31c0-.57,0-1.13,0-1.69s0-1.18,0-1.77c0-.19-.06-.28-.26-.27h-.57c-.44,0-.45,0-.45.43,0,.89,0,1.78,0,2.66,0,.31-.14.7.08.89m2.13,0c.2.21.56.06.85.07s.33,0,.33-.34c0-.94,0-1.89,0-2.83s0-.91-.94-.86c-.23,0-.32.08-.31.31,0,.58,0,1.15,0,1.73,0,.37,0,.74,0,1.1s-.12.63.05.82M18.18,40c-.39,0-.39,0-.39.43,0,1.22,0,2.45,0,3.67,0,.75-.14.63.66.64.3,0,.31,0,.31-.32V40.56c0-.59.09-.57-.58-.57m76.43,2.35c0,.59,0,1.18,0,1.77s-.12.62.63.62c.34,0,.34,0,.34-.34,0-1.27,0-2.53,0-3.8,0-.65.12-.59-.62-.6h0c-.23,0-.31.08-.31.31,0,.68,0,1.36,0,2M24.36,40c-.31,0-.33,0-.33.33V44.4c0,.33,0,.33.35.34h.09c.41,0,.42,0,.42-.41v-3.9c0-.44,0-.44-.44-.44h-.09M11.22,44.74c.18,0,.27-.05.26-.25V40.28c0-.22-.08-.3-.28-.29H11c-.34,0-.35,0-.35.35,0,.66,0,1.33,0,2s0,1.24,0,1.86-.13.53.59.54m91.26,0c.19,0,.27-.06.27-.25,0-1.41,0-2.81,0-4.22,0-.21-.09-.29-.29-.28h-.26c-.23,0-.32.07-.32.31,0,.69,0,1.39,0,2.08s0,1.21,0,1.82-.13.53.59.54M89,40h-.09c-.37,0-.37,0-.38.37V44.3c0,.44,0,.44.44.44h0c.38,0,.38,0,.38-.4v-4c0-.39,0-.39-.39-.4m11.8-24.64H97c-.59,0-.53-.1-.54.55,0,.33,0,.34.35.34h3.69c.64,0,.56.11.58-.6,0-.24-.09-.3-.31-.29m-88.14.89h3.77c.6,0,.54.1.55-.54,0-.34,0-.35-.34-.35H12.86c-.6,0-.54-.1-.55.59,0,.23.07.31.3.3m37,.78c-.21-.2-.59,0-.89-.07s-.3.09-.3.31c0,.66,0,1.33,0,2,0,.28-.12.63,0,.82s.56.06.85.07.33,0,.34-.35V18.55c0-.24,0-.47,0-.71s.13-.64,0-.82m14.31,3.13c.26,0,.53,0,.8,0s.18-.06.18-.19c0-.93,0-1.86,0-2.79,0-.15-.07-.21-.22-.21s-.53,0-.79,0-.24.07-.24.23c0,.45,0,.89,0,1.33s0,.92,0,1.38c0,.19.06.26.26.26m19.68-3.91h3.45c.64,0,.57.11.59-.6,0-.24-.1-.3-.32-.29H83.76c-.56,0-.51-.08-.51.53,0,.35,0,.36.37.36m-53.87-.89H26.3c-.64,0-.57-.12-.59.59,0,.24.09.3.31.3h3.63c.52,0,.47,0,.48-.48v0c0-.35,0-.36-.38-.36m7.58,29.39a.81.81,0,0,1,.22,0c.23,0,.3-.07.3-.3,0-1.38,0-2.75,0-4.13,0-.31,0-.32-.38-.32s-.38,0-.39.31v2.88c0,.43,0,.86,0,1.29,0,.18.05.28.25.27m38.26,0a1,1,0,0,0,.61,0c.15-.05.09-.23.09-.36V40.41c0-.42,0-.43-.46-.42-.23,0-.32.07-.31.31,0,.68,0,1.36,0,2v2.08c0,.1,0,.25.07.28m6.09,0a1,1,0,0,0,.65,0c.15-.05.08-.24.08-.36,0-1.31,0-2.62,0-3.94,0-.07,0-.15,0-.22a.17.17,0,0,0-.19-.19H82c-.33,0-.34,0-.34.35,0,.67,0,1.33,0,2v2.08c0,.1-.05.25.06.29M31.67,40a1.06,1.06,0,0,0-.61,0c-.18.06-.1.25-.1.39,0,1.16,0,2.33,0,3.5v.62c0,.15.06.21.21.21a2.26,2.26,0,0,1,.26,0c.31,0,.32,0,.32-.32,0-.68,0-1.36,0-2V40.3c0-.1,0-.24-.08-.28M57.73,22.3c0,.21.1.25.28.24h1.73c.15,0,.25,0,.25-.21,0-.4,0-.8,0-1.2,0-.18-.09-.23-.24-.22H58c-.18,0-.28.05-.28.25,0,.38,0,.77,0,1.15m-2.1-1.18c0-.15-.07-.21-.21-.21H53.6c-.15,0-.21.06-.21.21,0,.4,0,.8,0,1.2,0,.17.08.23.24.22H55.4c.17,0,.24-.05.23-.23V21.12m-7,15.54h.75c.2,0,.29-.06.28-.28,0-.39,0-.79,0-1.19s0-.76,0-1.15c0-.18-.06-.27-.25-.26h-.75c-.17,0-.25.06-.25.24q0,1.21,0,2.43c0,.15.07.21.22.21m16,0c.18,0,.23-.08.23-.24,0-.79,0-1.59,0-2.38,0-.2-.1-.26-.28-.25H64c-.22,0-.32.06-.31.3s0,.76,0,1.14a4.64,4.64,0,0,0,0,.53c0,.29-.14.68.07.85s.62,0,.94,0M61.81,22.54h.88c.12,0,.19-.05.19-.18V21.12c0-.15-.07-.21-.21-.21H60.94c-.12,0-.18.06-.18.19v1.23c0,.15.06.21.21.21h.84m-9.19-1.41c0-.15-.06-.22-.21-.22H50.73c-.16,0-.25.05-.24.23v1.19c0,.15.06.21.21.21h1.67c.17,0,.25,0,.25-.22,0-.4,0-.8,0-1.19m7.09,10.16c-.28,0-.56,0-.84,0s-.59,0-.88,0-.26,0-.25.22v1.07c0,.18.09.22.25.22h1.72c.18,0,.28,0,.28-.25s0-.68,0-1-.11-.24-.28-.24m-4.36,0c-.27,0-.54,0-.8,0h0c-.31,0-.62,0-.93,0s-.24.07-.24.24q0,.51,0,1c0,.16,0,.25.23.25h1.81c.15,0,.21-.07.21-.22,0-.34,0-.68,0-1s-.1-.28-.29-.27m-35.45-15h2.79c.56,0,.51.07.51-.53,0-.35,0-.36-.38-.36H20.17c-.63,0-.57-.12-.58.6,0,.24.09.3.31.29m57.55,0c.9,0,1.8,0,2.71,0,.66,0,.59.15.6-.62,0-.21-.08-.28-.28-.27H77.59c-.51,0-.47,0-.47.48v.09c0,.31,0,.32.33.32m-44.57,0h2.84c.59,0,.53.08.53-.56,0-.32,0-.33-.36-.33H33.23c-.66,0-.65,0-.62.64,0,.2.09.25.27.25m60.57-.89h-2.7c-.63,0-.58-.15-.58.64,0,.2.08.25.26.25h2.83c.57,0,.51.07.52-.53v0c0-.31,0-.32-.33-.32M60.76,32.58c0,.15.06.22.21.22h1.64c.17,0,.28,0,.28-.25s0-.68,0-1c0-.17-.08-.24-.24-.24H61c-.16,0-.25.05-.25.23,0,.35,0,.71,0,1.06m-9.2.22h.84a.19.19,0,0,0,.22-.22c0-.35,0-.71,0-1.06,0-.15,0-.23-.21-.23-.56,0-1.12,0-1.69,0-.16,0-.24.07-.23.24v1c0,.17.06.25.23.25h.84m5.13-12.65c.21,0,.28-.07.28-.28,0-.43,0-.85,0-1.28v-1c0-.78.13-.66-.69-.67-.31,0-.32,0-.32.32,0,.72,0,1.44,0,2.16s-.16.69.73.72m0,16.51c.21,0,.28-.06.28-.28,0-.63,0-1.27,0-1.9s0-.76-.75-.71c-.18,0-.27.08-.26.27v1.19h0c0,.24,0,.48,0,.71,0,.83-.16.7.73.72m3.3-21c0-.19-.06-.27-.26-.26H58.49c-.84,0-.84,0-.76.85,0,.15.06.22.21.21h1.29c.81,0,.8,0,.76-.8m-4.35,0c0-.22-.1-.27-.3-.26H54.15c-.81,0-.81,0-.77.81,0,.18,0,.27.25.26h1.24c.81,0,.81,0,.77-.8m7.25,0c0-.18-.06-.27-.26-.26H61.52c-.81,0-.81,0-.77.81,0,.18,0,.27.25.26h1.16c.78,0,.77,0,.73-.8m-10.27,0c0-.22-.1-.27-.3-.26h-1.1c-.78,0-.78,0-.74.8,0,.19.06.27.26.27h1.11c.82,0,.81,0,.77-.8m-3.14,5.3h-.83c-.12,0-.2.05-.2.18v1.28c0,.11,0,.16.16.17a2.25,2.25,0,0,0,.26,0c.26,0,.59.11.76-.07s0-.48,0-.67,0-.47,0-.67,0-.22-.21-.22m14.26,1.56c.18.19.53,0,.8.07a.57.57,0,0,0,.13,0c.19,0,.26-.07.26-.26s0-.64,0-1,0-.4-.42-.41c-.83,0-.83,0-.83.84,0,.22-.11.55.06.73M49.12,32.8c.66,0,.56.05.57-.61,0-1,0-1-1-.9-.18,0-.28.06-.27.26s0,.32,0,.48h0v.09c0,.76-.12.68.68.68m14.9,0h.13c.78,0,.78,0,.78-.75,0-.16,0-.33,0-.49s-.06-.27-.25-.27-.5,0-.75,0-.25.09-.25.27,0,.62,0,.93,0,.3.33.31M56.7,22.55c.23,0,.27-.1.27-.3s0-.53,0-.8c0-.59.07-.54-.55-.54-.46,0-.46,0-.46.45v.49c0,.81-.17.67.74.7M56,31.89c0,.14,0,.29,0,.44,0,.47,0,.47.49.47s.51,0,.52-.53v-.22h0c0-.2,0-.39,0-.58s0-.15-.11-.16a1.42,1.42,0,0,0-.82,0c-.16.09-.06.35-.07.54M48.44,15.8c0,.71-.09.6.61.61s.62.12.64-.62a1.08,1.08,0,0,1,0-.18c0-.18,0-.27-.25-.26h-.75c-.17,0-.26.05-.25.23a1.61,1.61,0,0,1,0,.22m16.28-.45h-.8c-.17,0-.25.06-.24.23a1.62,1.62,0,0,1,0,.22c0,.72-.09.6.61.61s.62.11.64-.62a1.61,1.61,0,0,1,0-.22c0-.15-.06-.22-.21-.22M56,16.18c0,.17.06.25.23.23a2.43,2.43,0,0,0,.27,0c.56,0,.5.08.51-.52v-.22c0-.31,0-.32-.32-.32-.81,0-.68-.13-.69.7v.13m-37.68.06h.17c.22,0,.32,0,.32-.29,0-.71.05-.59-.59-.6-.39,0-.39,0-.39.38,0,.58-.05.5.49.51m77-.89h-.4c-.2,0-.32,0-.29.27a1.62,1.62,0,0,1,0,.22c0,.39,0,.4.38.4.66,0,.58.13.6-.62,0-.23-.09-.29-.29-.27m-6.74.86a2.06,2.06,0,0,0,.7,0c.06,0,.08-.08.08-.14V15.8c0-.45,0-.45-.45-.45s-.41,0-.41.41c0,.1,0,.21,0,.31s0,.13.07.14m-77.48,0c.4,0,.4,0,.4-.46s0-.43-.43-.43-.42,0-.42.43,0,.46.45.46m91,0h.57c.09,0,.13-.06.13-.15v-.26c0-.48,0-.48-.48-.47H102c-.06,0-.13,0-.13.09,0,.23,0,.47,0,.7,0,.06.08.09.14.09m-77.86,0h.57c.09,0,.13-.06.13-.15a2.25,2.25,0,0,0,0-.26c0-.48,0-.48-.47-.47h-.22c-.07,0-.14,0-.14.09,0,.23,0,.47,0,.7,0,.06.07.09.13.09m52.11-.41v-.31a.16.16,0,0,0-.13-.15c-.46-.13-.64,0-.64.48a.57.57,0,0,1,0,.13c0,.22.09.29.29.27h.26c.14,0,.23,0,.22-.2v-.22Zm5.83.42h.17c.07,0,.11-.05.11-.11a1.15,1.15,0,0,0,0-.69c-.11-.18-.37,0-.57-.08s-.18.06-.18.19v.22c0,.5,0,.5.5.48m-44.27-.42v-.3c0-.06,0-.13-.08-.15a1.15,1.15,0,0,0-.61,0c-.14.06-.07.24-.08.36,0,.52.06.57.59.5.12,0,.18-.07.18-.19v-.23Zm-6.14-.4c-.08-.16-.32-.05-.49-.07h-.09c-.13,0-.18.08-.17.2v.22c0,.48,0,.48.47.47h.17c.06,0,.13,0,.14-.08a1.38,1.38,0,0,0,0-.73"/><path class="cls-1" d="M23.11,64.84l3.38,7.6H25.38l-1-2.23H21.17l-1,2.23H19.11l3.24-7.6Zm-.39,1.66-1.13,2.74h2.34Z"/><path class="cls-1" d="M34,71.46v2.36H32.91V72.44h-5v1.38H26.82V71.46h.66L30,64.84h.77l2.61,6.62Zm-3.68-5-1.77,5h3.68Z"/><path class="cls-1" d="M37.48,68.07a3.26,3.26,0,0,1,1.14.17,2.39,2.39,0,0,1,.81.48,2.08,2.08,0,0,1,.48.7,2.22,2.22,0,0,1,.16.85,2.14,2.14,0,0,1-.17.84,1.86,1.86,0,0,1-.49.69,2.42,2.42,0,0,1-.8.47,3.39,3.39,0,0,1-1.1.17H35.18V64.89h1.08v3.18Zm-1.22,1v2.42h1.39a1.58,1.58,0,0,0,.62-.1,1.08,1.08,0,0,0,.4-.27.91.91,0,0,0,.21-.37,1.14,1.14,0,0,0,.07-.41,1.4,1.4,0,0,0-.09-.51,1.22,1.22,0,0,0-.25-.41,1.25,1.25,0,0,0-.41-.26,1.55,1.55,0,0,0-.55-.09Zm6.23,3.4H41.41V64.89h1.08Z"/><polygon class="cls-1" points="48.68 64.89 48.68 65.86 45.48 65.86 45.48 72.44 44.4 72.44 44.4 64.89 48.68 64.89"/><polygon class="cls-1" points="54.15 64.89 54.15 65.86 50.95 65.86 50.95 68.14 54.04 68.14 54.04 69.12 50.95 69.12 50.95 71.46 54.25 71.46 54.25 72.44 49.87 72.44 49.87 64.89 54.15 64.89"/><path class="cls-1" d="M60.93,66.89l-4.79,5.64h-.52V64.89H56.7v5.74l4.78-5.74H62v7.55H60.93Zm-3-4a.8.8,0,0,0,.85.68.77.77,0,0,0,.52-.16,1,1,0,0,0,.27-.52h.75A1.78,1.78,0,0,1,59.83,64a1.47,1.47,0,0,1-1,.36,1.51,1.51,0,0,1-1-.36,1.79,1.79,0,0,1-.53-1.06Z"/><path class="cls-1" d="M70.42,71.87a6.11,6.11,0,0,1-.58.27,5.81,5.81,0,0,1-.63.21,5,5,0,0,1-.71.13,5.31,5.31,0,0,1-.82,0,4.62,4.62,0,0,1-1.28-.16,4.23,4.23,0,0,1-1-.46,3.42,3.42,0,0,1-.79-.66,4.56,4.56,0,0,1-.55-.8,4,4,0,0,1-.32-.85,3.54,3.54,0,0,1-.1-.83,3.93,3.93,0,0,1,.14-1.09,3.42,3.42,0,0,1,.4-1,3.48,3.48,0,0,1,.63-.8,3.63,3.63,0,0,1,.83-.61,4,4,0,0,1,1-.38,4.24,4.24,0,0,1,1.14-.14,5.63,5.63,0,0,1,.58,0l.62.12c.21,0,.43.12.66.19s.47.17.72.28v1.16l-.67-.35A6.62,6.62,0,0,0,69,66a4.75,4.75,0,0,0-.63-.14,4.51,4.51,0,0,0-.65,0,3.27,3.27,0,0,0-1.19.22,3,3,0,0,0-1,.61,2.65,2.65,0,0,0-.63.91,2.92,2.92,0,0,0-.22,1.16A2.88,2.88,0,0,0,65,69.83a2.54,2.54,0,0,0,.62.91,2.87,2.87,0,0,0,1,.59,3.47,3.47,0,0,0,1.24.21,4.15,4.15,0,0,0,1.32-.22,5.66,5.66,0,0,0,1.32-.63Z"/><path class="cls-1" d="M72,64.89h1.08V68a3,3,0,0,0,.55,0,1.13,1.13,0,0,0,.43-.2,1.65,1.65,0,0,0,.37-.41,3.94,3.94,0,0,0,.33-.68,4.68,4.68,0,0,1,.42-.84,1.88,1.88,0,0,1,.47-.53,1.52,1.52,0,0,1,.57-.28,2.57,2.57,0,0,1,.71-.08h.17v1a2,2,0,0,0-.6.07.82.82,0,0,0-.39.21,1.13,1.13,0,0,0-.27.39c-.07.15-.15.34-.23.56a3.65,3.65,0,0,1-.18.41c-.08.13-.16.26-.25.38a2.31,2.31,0,0,1-.3.32,1.21,1.21,0,0,1-.31.21,4.31,4.31,0,0,1,.49.27,2.23,2.23,0,0,1,.38.32,5,5,0,0,1,.35.46l.4.67,1.33,2.31H76.26l-1.18-2c-.18-.32-.35-.58-.49-.78a2.11,2.11,0,0,0-.45-.48,1.35,1.35,0,0,0-.48-.24,2.8,2.8,0,0,0-.61-.06v3.6H72Z"/><polygon class="cls-1" points="84.08 66.89 79.28 72.53 78.76 72.53 78.76 64.89 79.84 64.89 79.84 70.63 84.63 64.89 85.16 64.89 85.16 72.44 84.08 72.44 84.08 66.89"/><path class="cls-1" d="M92.36,66.89l-4.79,5.64h-.52V64.89h1.08v5.74l4.79-5.74h.52v7.55H92.36Zm-3-4a.79.79,0,0,0,.85.68.76.76,0,0,0,.51-.16.89.89,0,0,0,.27-.52h.76A1.9,1.9,0,0,1,91.27,64a1.5,1.5,0,0,1-1,.36,1.51,1.51,0,0,1-1-.36,1.79,1.79,0,0,1-.53-1.06Z"/><polygon class="cls-1" points="5.56 78.29 5.56 79.26 2.36 79.26 2.36 85.84 1.28 85.84 1.28 78.29 5.56 78.29"/><path class="cls-1" d="M6.41,82.07a3.92,3.92,0,0,1,.29-1.49,3.84,3.84,0,0,1,.82-1.23A3.92,3.92,0,0,1,8.8,78.5a4.68,4.68,0,0,1,3.35,0,4,4,0,0,1,1.28.84,3.87,3.87,0,0,1,.81,1.23,4,4,0,0,1,.29,1.5,4.07,4.07,0,0,1-.28,1.46,3.9,3.9,0,0,1-.8,1.23,3.94,3.94,0,0,1-1.29.86,4.45,4.45,0,0,1-1.71.32,4.34,4.34,0,0,1-1.16-.15,4,4,0,0,1-1-.4,3.67,3.67,0,0,1-.79-.62,3.51,3.51,0,0,1-.6-.79,4,4,0,0,1-.37-.91,4.22,4.22,0,0,1-.13-1m1.12,0a2.87,2.87,0,0,0,.23,1.14,2.7,2.7,0,0,0,.61.91,2.84,2.84,0,0,0,.93.61,3.36,3.36,0,0,0,2.34,0,2.84,2.84,0,0,0,.93-.61,2.88,2.88,0,0,0,.62-.91,3,3,0,0,0,.22-1.14,3.11,3.11,0,0,0-.22-1.16,2.88,2.88,0,0,0-.62-.91,3,3,0,0,0-.93-.6,3.36,3.36,0,0,0-2.34,0,3,3,0,0,0-.93.6,2.7,2.7,0,0,0-.61.91,2.93,2.93,0,0,0-.23,1.16"/><path class="cls-1" d="M22.59,85.28l-.57.26a5.81,5.81,0,0,1-.63.21,6.57,6.57,0,0,1-.72.14,6.81,6.81,0,0,1-.82,0,4.61,4.61,0,0,1-1.28-.17,3.82,3.82,0,0,1-1.81-1.12,3.46,3.46,0,0,1-.55-.8,3.5,3.5,0,0,1-.43-1.67,4.36,4.36,0,0,1,.14-1.1,3.79,3.79,0,0,1,1-1.76,3.86,3.86,0,0,1,.83-.61,4.41,4.41,0,0,1,1-.38,4.68,4.68,0,0,1,1.14-.14,4,4,0,0,1,.59,0,4.62,4.62,0,0,1,.61.11c.21,0,.43.12.66.19l.73.28V80a7.59,7.59,0,0,0-.68-.36,4.59,4.59,0,0,0-.64-.24,3.5,3.5,0,0,0-.64-.15,4.49,4.49,0,0,0-.64,0,3.36,3.36,0,0,0-1.2.21,3,3,0,0,0-1,.61,2.86,2.86,0,0,0-.85,2.07,2.92,2.92,0,0,0,.22,1.16,2.73,2.73,0,0,0,.62.9,2.87,2.87,0,0,0,1,.59,3.51,3.51,0,0,0,1.24.21,4.43,4.43,0,0,0,1.32-.21,5.73,5.73,0,0,0,1.32-.64Z"/><path class="cls-1" d="M24.49,78.29,27.2,84.6l2.23-6.31h1.06l-2.81,7.55a5.72,5.72,0,0,1-.37.78,2.07,2.07,0,0,1-.41.53,1.45,1.45,0,0,1-.5.3,1.64,1.64,0,0,1-.6.1,1.74,1.74,0,0,1-.53-.07,1.62,1.62,0,0,1-.42-.19v-1a1.07,1.07,0,0,0,.42.28,1.82,1.82,0,0,0,.57.08.69.69,0,0,0,.26-.06,1,1,0,0,0,.27-.16,1.16,1.16,0,0,0,.23-.26,1,1,0,0,0,.12-.35L23.4,78.29Z"/><path class="cls-1" d="M38.12,84.87v2.35H37V85.84H32v1.38H30.92V84.87h.67l2.49-6.62h.76l2.61,6.62Zm-3.68-5-1.77,5h3.69Z"/><path class="cls-1" d="M42.45,78.25l3.38,7.59H44.72l-1-2.23H40.51l-.95,2.23H38.45l3.24-7.59Zm-.39,1.65-1.13,2.74h2.34Z"/><path class="cls-1" d="M46.82,78.29h2.36a3.08,3.08,0,0,1,1.07.17,2,2,0,0,1,.75.46,1.77,1.77,0,0,1,.44.7,2.32,2.32,0,0,1,.14.84,2.27,2.27,0,0,1-.15.83A1.71,1.71,0,0,1,51,82a2.24,2.24,0,0,1-.79.45,3.52,3.52,0,0,1-1.14.16H47.91v3.27H46.82Zm1.09,1V81.6h1.23a1.63,1.63,0,0,0,.55-.08,1.09,1.09,0,0,0,.41-.23,1,1,0,0,0,.27-.37,1.36,1.36,0,0,0,.1-.51A1.22,1.22,0,0,0,50.4,80a.91.91,0,0,0-.21-.37,1.13,1.13,0,0,0-.39-.27,1.83,1.83,0,0,0-.62-.1Z"/><path class="cls-1" d="M59.25,85.28c-.18.09-.37.18-.57.26a5.81,5.81,0,0,1-.63.21,6.87,6.87,0,0,1-.71.14,7.08,7.08,0,0,1-.82,0,4.74,4.74,0,0,1-1.29-.17,3.71,3.71,0,0,1-1-.46,3.59,3.59,0,0,1-.78-.66,3.8,3.8,0,0,1-.55-.8,4,4,0,0,1-.32-.85,3.5,3.5,0,0,1-.11-.82,4.36,4.36,0,0,1,.14-1.1,4.13,4.13,0,0,1,.4-1,4.44,4.44,0,0,1,.63-.8,4.13,4.13,0,0,1,.83-.61,4.6,4.6,0,0,1,1-.38,4.68,4.68,0,0,1,1.14-.14,3.9,3.9,0,0,1,.59,0,4.62,4.62,0,0,1,.61.11c.22,0,.43.12.66.19l.73.28V80a6.43,6.43,0,0,0-.68-.36,4.59,4.59,0,0,0-.64-.24,3.6,3.6,0,0,0-.63-.15,4.63,4.63,0,0,0-.65,0,3.36,3.36,0,0,0-1.2.21,2.93,2.93,0,0,0-.95.61,2.65,2.65,0,0,0-.63.91,2.93,2.93,0,0,0-.23,1.16,3.11,3.11,0,0,0,.22,1.16,2.61,2.61,0,0,0,.63.9,2.92,2.92,0,0,0,1,.59,3.55,3.55,0,0,0,1.24.21,4.33,4.33,0,0,0,1.32-.21,5.73,5.73,0,0,0,1.32-.64Z"/><polygon class="cls-1" points="66.47 78.29 66.47 79.26 63.85 79.26 63.85 85.84 62.77 85.84 62.77 79.26 60.16 79.26 60.16 78.29 66.47 78.29"/><path class="cls-1" d="M67.71,85.84V78.29H69.9a3,3,0,0,1,1,.17,2.12,2.12,0,0,1,.72.43,1.71,1.71,0,0,1,.42.62,2.22,2.22,0,0,1,.13.71,1.62,1.62,0,0,1-.28,1,1.86,1.86,0,0,1-.87.63v0a2.61,2.61,0,0,1,.76.25,2.25,2.25,0,0,1,.57.43,1.72,1.72,0,0,1,.36.57,2.08,2.08,0,0,1,.13.71,2,2,0,0,1-.14.71,1.74,1.74,0,0,1-.45.65,2.46,2.46,0,0,1-.8.48,3.53,3.53,0,0,1-1.2.18Zm1.08-6.58v2.26h.72a2,2,0,0,0,1.2-.29,1.07,1.07,0,0,0,.39-.91,1.4,1.4,0,0,0-.06-.41.83.83,0,0,0-.22-.33,1.07,1.07,0,0,0-.41-.23,1.81,1.81,0,0,0-.62-.09Zm0,3.24v2.37h1.36a2.46,2.46,0,0,0,.79-.11,1.49,1.49,0,0,0,.5-.28.82.82,0,0,0,.25-.39,1.25,1.25,0,0,0,.08-.42,1.2,1.2,0,0,0-.1-.47,1,1,0,0,0-.31-.37,1.48,1.48,0,0,0-.52-.25,3.22,3.22,0,0,0-.74-.08Z"/><polygon class="cls-1" points="78.44 78.29 78.44 79.26 75.24 79.26 75.24 81.54 78.33 81.54 78.33 82.52 75.24 82.52 75.24 84.87 78.54 84.87 78.54 85.84 74.16 85.84 74.16 78.29 78.44 78.29"/><polygon class="cls-1" points="86.31 78.29 86.31 85.84 85.23 85.84 85.23 82.55 81 82.55 81 85.84 79.92 85.84 79.92 78.29 81 78.29 81 81.58 85.23 81.58 85.23 78.29 86.31 78.29"/><polygon class="cls-1" points="94.6 78.29 94.6 85.84 93.52 85.84 93.52 82.55 89.28 82.55 89.28 85.84 88.2 85.84 88.2 78.29 89.28 78.29 89.28 81.58 93.52 81.58 93.52 78.29 94.6 78.29"/><path class="cls-1" d="M98.79,81.47a3.62,3.62,0,0,1,1.15.17,2.34,2.34,0,0,1,.8.48,1.83,1.83,0,0,1,.48.7,2.22,2.22,0,0,1,.16.85,2.13,2.13,0,0,1-.16.84,1.92,1.92,0,0,1-.5.69,2.32,2.32,0,0,1-.8.47,3.33,3.33,0,0,1-1.09.17H96.49V78.29h1.08v3.18Zm-1.22,1v2.43H99a1.6,1.6,0,0,0,.62-.11,1.07,1.07,0,0,0,.4-.26,1,1,0,0,0,.21-.38,1.39,1.39,0,0,0,.06-.4,1.72,1.72,0,0,0-.08-.52,1.11,1.11,0,0,0-.26-.4,1.33,1.33,0,0,0-.41-.27,1.53,1.53,0,0,0-.54-.09Zm6.23,3.4h-1.08V78.29h1.08Z"/><path class="cls-1" d="M111,80.29l-4.79,5.65h-.52V78.29h1.08V84l4.78-5.74h.53v7.55H111Zm-3-4a.79.79,0,0,0,.85.69.77.77,0,0,0,.51-.17.89.89,0,0,0,.27-.52h.76a1.81,1.81,0,0,1-.53,1.06,1.46,1.46,0,0,1-1,.37,1.52,1.52,0,0,1-1-.37,1.76,1.76,0,0,1-.53-1.06Z"/><path class="cls-1" d="M19,92l2.71,6.31L23.9,92H25L22.15,99.5a5.72,5.72,0,0,1-.37.78,1.76,1.76,0,0,1-.42.53,1.5,1.5,0,0,1-.49.31,1.89,1.89,0,0,1-.6.09,1.74,1.74,0,0,1-.53-.07,1.62,1.62,0,0,1-.42-.19v-1a1.17,1.17,0,0,0,.42.27,1.82,1.82,0,0,0,.57.08.91.91,0,0,0,.26,0,1.34,1.34,0,0,0,.27-.17,1.16,1.16,0,0,0,.23-.26,1,1,0,0,0,.12-.35L17.87,92Z"/><polygon class="cls-1" points="32.51 91.95 32.51 99.5 31.43 99.5 31.43 96.22 27.19 96.22 27.19 99.5 26.11 99.5 26.11 91.95 27.19 91.95 27.19 95.24 31.43 95.24 31.43 91.95 32.51 91.95"/><polygon class="cls-1" points="39.72 93.96 34.92 99.6 34.4 99.6 34.4 91.95 35.48 91.95 35.48 97.7 40.27 91.95 40.8 91.95 40.8 99.5 39.72 99.5 39.72 93.96"/><path class="cls-1" d="M42.69,99.5V92h2.19a3,3,0,0,1,1,.17,2.14,2.14,0,0,1,.72.44,1.67,1.67,0,0,1,.42.61,2,2,0,0,1,.14.71,1.69,1.69,0,0,1-.28,1,2,2,0,0,1-.88.64v0a2.83,2.83,0,0,1,.76.25,2.14,2.14,0,0,1,.58.43,2,2,0,0,1,.36.58,2,2,0,0,1,0,1.41,1.75,1.75,0,0,1-.44.65,2.45,2.45,0,0,1-.81.48,3.53,3.53,0,0,1-1.2.18Zm1.08-6.58v2.26h.72a2.05,2.05,0,0,0,1.21-.29,1.07,1.07,0,0,0,.39-.91,1.41,1.41,0,0,0-.07-.41.71.71,0,0,0-.22-.33,1.11,1.11,0,0,0-.4-.23,1.91,1.91,0,0,0-.63-.09Zm0,3.24v2.37h1.36a2.53,2.53,0,0,0,.8-.11,1.43,1.43,0,0,0,.49-.28,1,1,0,0,0,.26-.38,1.29,1.29,0,0,0,.07-.43,1,1,0,0,0-.1-.47,1,1,0,0,0-.31-.37,1.67,1.67,0,0,0-.52-.24,2.68,2.68,0,0,0-.74-.09Z"/><polygon class="cls-1" points="53.42 91.95 53.42 92.92 50.23 92.92 50.23 95.2 53.32 95.2 53.32 96.18 50.23 96.18 50.23 98.53 53.53 98.53 53.53 99.5 49.15 99.5 49.15 91.95 53.42 91.95"/><path class="cls-1" d="M54.84,92H57.2a3.12,3.12,0,0,1,1.07.17,2,2,0,0,1,.75.47,1.78,1.78,0,0,1,.44.69,2.55,2.55,0,0,1,.14.84,2.27,2.27,0,0,1-.15.83,1.74,1.74,0,0,1-.47.67,2.24,2.24,0,0,1-.79.45,3.45,3.45,0,0,1-1.13.17H55.93V99.5H54.84Zm1.09,1v2.34h1.22a1.88,1.88,0,0,0,.55-.07,1.24,1.24,0,0,0,.42-.24,1,1,0,0,0,.27-.37,1.36,1.36,0,0,0,.09-.51,1.51,1.51,0,0,0-.06-.41,1,1,0,0,0-.21-.37,1,1,0,0,0-.4-.26,1.51,1.51,0,0,0-.61-.11Z"/><path class="cls-1" d="M67.27,98.94a4.29,4.29,0,0,1-.58.26,3,3,0,0,1-.62.21,4.84,4.84,0,0,1-.72.14,6.81,6.81,0,0,1-.82,0,4.61,4.61,0,0,1-1.28-.17,3.87,3.87,0,0,1-1-.45,4,4,0,0,1-.79-.67,3.75,3.75,0,0,1-.54-.8,3.56,3.56,0,0,1-.33-.85,3.46,3.46,0,0,1-.1-.82,4.36,4.36,0,0,1,.14-1.1,3.79,3.79,0,0,1,1-1.76,3.86,3.86,0,0,1,.83-.61,4.6,4.6,0,0,1,1-.38,4.68,4.68,0,0,1,1.14-.14c.19,0,.39,0,.59,0a4.62,4.62,0,0,1,.61.11c.21,0,.43.12.66.2a7.65,7.65,0,0,1,.73.28v1.16a7.59,7.59,0,0,0-.68-.36,4.59,4.59,0,0,0-.64-.24,3.5,3.5,0,0,0-.64-.15,4.49,4.49,0,0,0-.64,0,3.16,3.16,0,0,0-1.2.22,2.79,2.79,0,0,0-1,.6,2.88,2.88,0,0,0-.62.91,2.8,2.8,0,0,0-.23,1.16,2.92,2.92,0,0,0,.22,1.16,2.67,2.67,0,0,0,1.59,1.49,3.51,3.51,0,0,0,1.24.21A4.43,4.43,0,0,0,66,98.39a5.73,5.73,0,0,0,1.32-.64Z"/><polygon class="cls-1" points="74.13 93.96 69.34 99.6 68.82 99.6 68.82 91.95 69.9 91.95 69.9 97.7 74.68 91.95 75.21 91.95 75.21 99.5 74.13 99.5 74.13 93.96"/><polygon class="cls-1" points="82.77 91.95 82.77 92.92 80.16 92.92 80.16 99.5 79.08 99.5 79.08 92.92 76.47 92.92 76.47 91.95 82.77 91.95"/><polygon class="cls-1" points="88.29 91.95 88.29 92.92 85.09 92.92 85.09 95.2 88.19 95.2 88.19 96.18 85.09 96.18 85.09 98.53 88.4 98.53 88.4 99.5 84.01 99.5 84.01 91.95 88.29 91.95"/><polygon class="cls-1" points="95.43 91.95 95.43 92.92 92.82 92.92 92.82 99.5 91.74 99.5 91.74 92.92 89.13 92.92 89.13 91.95 95.43 91.95"/></g></g></svg>