<?xml version="1.0" encoding="UTF-8"?> <svg xmlns="http://www.w3.org/2000/svg" width="515" height="410" viewBox="0 0 515 410" fill="none"> <path d="M110.777 71.6774C110.777 71.6774 169.32 -4.47772 245.44 3.59999C321.56 11.6778 304.911 37.9406 295.884 50.789C286.857 63.637 252.332 40.4743 319.296 36.8272C386.26 33.1802 403.712 90.7164 384.817 115.871C365.92 141.024 366.95 141.159 366.95 141.159C366.95 141.159 414.652 99.0617 440.166 140.752C465.68 182.44 424.219 188.398 411.889 193.069C411.889 193.069 502.403 160.305 511.976 269.115C521.547 377.925 377.864 357.85 377.109 291.384C376.355 224.918 422.13 333.732 354.447 372.521C286.765 411.312 245.081 383.403 222.497 349.552C222.497 349.552 218.166 411.984 176.471 406.493C134.774 401.004 137.511 366.377 139.512 349.552C139.512 349.552 103.708 413.058 64 356.386C24.2905 299.714 38.6812 287.88 81.5 280.5C124.319 273.118 31.6946 303.426 11.5118 252.17C-8.67095 200.914 8.31256 167.839 48.9906 160.35C48.9906 160.35 -2.27176 118.4 49.3144 62.333C100.901 6.26384 126.193 48.4532 118.675 76.2305C111.155 104.008 92.8916 92.6364 110.777 71.6774Z" fill="#F2F4F5" stroke="#0033CC" stroke-width="5" stroke-miterlimit="10" stroke-linecap="round" stroke-linejoin="round"></path> </svg> 