<?xml version="1.0" encoding="UTF-8"?> <svg xmlns="http://www.w3.org/2000/svg" width="266" height="428" viewBox="0 0 266 428" fill="none"> <path d="M135.129 1.03642C135.129 1.03642 99.906 2.42265 99.3084 36.1131C99.3084 36.1131 60.1204 55.1436 60.5793 90.3639C61.0392 125.584 70.8649 140.925 65.6579 158.629C60.4519 176.331 47.9217 208.406 58.1524 223.494C58.1524 223.494 78.5579 210.505 91.8526 206.166C105.148 201.826 115.043 194.638 115.427 181.991C115.427 181.991 94.3106 172.678 91.4642 138.388C91.4642 138.388 81.8974 139.245 80.4918 130.35C79.0168 121.016 86.5316 120.043 91.6392 118.932C96.7478 117.822 124.304 110.064 134.541 81.144C134.541 81.144 155.381 114.184 178.151 116.295C181.836 116.637 188.69 117.607 188.444 125.869C188.198 134.132 183.931 134.726 178.333 137.526C172.734 140.325 183.931 158.346 154.014 181.265C154.014 181.265 146.7 193.193 174.909 203.339C203.119 213.487 207.372 219.371 210.5 222.5C214.441 225.182 201.44 173.781 204.851 133.78C208.262 93.7793 206.411 65.2498 186.784 47.5025C179.546 40.9581 168.885 43.7325 168.083 34.5258C164.953 -1.44353 135.129 1.03642 135.129 1.03642Z" fill="#0033CC" stroke="#0033CC" stroke-width="2" stroke-miterlimit="10" stroke-linecap="round" stroke-linejoin="round"></path> <path d="M136.088 132.747L129.659 152.997L138.011 149.937" stroke="#0033CC" stroke-width="2" stroke-miterlimit="10" stroke-linecap="round" stroke-linejoin="round"></path> <path d="M136.636 164.937L146.365 157.35" stroke="#0033CC" stroke-width="2" stroke-miterlimit="10" stroke-linecap="round" stroke-linejoin="round"></path> <path d="M152.941 127.433C151.356 128.866 151.662 134.61 152.271 136.622C152.694 138.018 153.95 139.954 155.621 138.618C158.224 136.535 159.054 132.791 158.575 129.666C158.307 127.927 157.601 125.97 155.538 126.071C154.383 126.128 153.65 126.792 152.941 127.433Z" fill="#0033CC" stroke="#0033CC" stroke-width="2" stroke-miterlimit="10" stroke-linecap="round" stroke-linejoin="round"></path> <path d="M110.942 126.712C108.568 128.011 109.668 134.678 110.139 136.978C110.41 138.3 111.558 140.17 113.229 139.369C116.471 137.817 118.18 128.98 114.894 126.81C113.471 125.871 112.264 125.989 110.942 126.712Z" fill="#0033CC" stroke="#0033CC" stroke-width="2" stroke-miterlimit="10" stroke-linecap="round" stroke-linejoin="round"></path> <path d="M148.808 119.191C148.898 118.184 150.476 117.226 151.252 116.791C154.94 114.72 157.823 115.281 160.417 118.381" stroke="#0033CC" stroke-width="2" stroke-miterlimit="10" stroke-linecap="round" stroke-linejoin="round"></path> <path d="M107.251 119.599C106.65 120.102 107.977 118.826 108.211 118.618C109.056 117.866 109.903 117.405 110.984 117.081C114.251 116.099 117.851 116.393 118.753 120.196" stroke="#0033CC" stroke-width="2" stroke-miterlimit="10" stroke-linecap="round" stroke-linejoin="round"></path> <path d="M59.0969 222.774C59.0969 222.774 5.4967 284.561 2.42758 323.436C-0.640496 362.311 12.9722 393.787 35.7197 409.544C35.7197 409.544 38.8167 419.937 46.0446 423.551C53.2715 427.164 223.5 426.5 227.5 423.551" stroke="#0033CC" stroke-width="2" stroke-miterlimit="10" stroke-linecap="round" stroke-linejoin="round"></path> <path d="M209.749 221.438C209.749 221.438 265.406 278.322 264.762 315.993C264.118 353.666 262.773 377.932 231.5 407C231.5 407 232.525 419.316 226.5 425" stroke="#0033CC" stroke-width="2" stroke-miterlimit="10" stroke-linecap="round" stroke-linejoin="round"></path> <path d="M172.035 201.773C172.035 201.773 164.09 278.281 159.496 288.331" stroke="#0033CC" stroke-width="2" stroke-miterlimit="10" stroke-linecap="round" stroke-linejoin="round"></path> <path d="M102.902 199.468C102.902 199.468 99.0926 266.657 112.793 289.869" stroke="#0033CC" stroke-width="2" stroke-miterlimit="10" stroke-linecap="round" stroke-linejoin="round"></path> <path d="M103.502 239.661C103.502 239.661 111.509 242.238 112.467 242.558C120.748 245.322 130.402 245.102 139.02 245.451C145.855 245.728 153.493 245.579 160.036 243.687C161.066 243.39 164.379 243.107 167.412 241.099C167.428 241.089 166.803 242.045 166.76 242.109C165.752 243.612 165.125 248.786 165.546 250.436C166.421 253.863 164.808 258.191 164.126 261.62C163.926 262.631 162.894 264.315 162.881 265.289C162.853 267.438 163.001 268.722 162.685 270.834C162.003 275.39 161.274 279.265 160.113 283.784C159.705 285.37 159.874 287.716 158.795 289.169C157.817 290.488 153.228 288.236 151.477 288.581C148.35 289.197 142.746 288.955 139.632 288.959C135.855 288.963 132.732 288.248 128.985 288.675C125.07 289.122 117.189 290.538 113.418 287.976C112.573 287.402 112.39 285.323 111.9 284.138C108.937 276.97 106.317 270.027 105.774 262.298C105.621 260.122 104.643 256.377 105.123 254.509C106.325 249.835 104.901 248.659 103.385 244.992C103.362 244.936 104.088 242.146 104.28 241.683C104.48 241.199 103.502 239.661 103.502 239.661Z" fill="#0033CC" stroke="#0033CC" stroke-width="2" stroke-miterlimit="10" stroke-linecap="round" stroke-linejoin="round"></path> <path d="M227.988 290.453C227.988 290.453 40.0035 287.453 28.5422 293.325C17.081 299.197 26.1174 415.725 46.8016 422.234C67.4857 428.743 210.717 425 226 425C226 425 249.102 342.803 245.052 303.159C245.052 303.159 245.297 288.823 227.988 290.453Z" stroke="#0033CC" stroke-width="2" stroke-miterlimit="10" stroke-linecap="round" stroke-linejoin="round"></path> <path d="M61.6876 272.135C61.6876 272.135 54.9382 282.533 53.3596 290.106" stroke="#0033CC" stroke-width="2" stroke-miterlimit="10" stroke-linecap="round" stroke-linejoin="round"></path> <path d="M210.709 268.83C210.709 268.83 220.111 280.223 219.833 289.923" stroke="#0033CC" stroke-width="2" stroke-miterlimit="10" stroke-linecap="round" stroke-linejoin="round"></path> </svg> 