<?xml version="1.0" encoding="UTF-8"?> <svg xmlns="http://www.w3.org/2000/svg" width="578" height="289" viewBox="0 0 578 289" fill="none"> <path d="M148.282 81.0814C148.282 81.0814 156.907 60.8468 164.038 66.1542C171.171 71.4617 153.735 87.7445 157.383 110.135C157.383 110.135 138.994 118.068 134.018 121.551C134.018 121.551 129.209 106.789 130.037 101.482C130.867 96.1743 140.652 92.1939 148.282 81.0814Z" stroke="#0033CC" stroke-width="2" stroke-miterlimit="10" stroke-linecap="round" stroke-linejoin="round"></path> <path d="M138.469 3.19299L76.747 50.0833C76.747 50.0833 68.9476 53.621 79.6183 65.2335C90.2889 76.8461 109.567 111.675 118.509 108.174C127.45 104.672 129.99 100.025 129.99 100.025" stroke="#0033CC" stroke-width="2" stroke-miterlimit="10" stroke-linecap="round" stroke-linejoin="round"></path> <path d="M166.215 67.7153C166.215 67.7153 184.746 54.152 183.185 49.1579C181.624 44.1638 175.648 39.4664 175.648 39.4664" stroke="#0033CC" stroke-width="2" stroke-miterlimit="10" stroke-linecap="round" stroke-linejoin="round"></path> <path d="M138.427 3.36626C138.427 3.36626 145.054 -4.37272 155.717 11.2123" stroke="#0033CC" stroke-width="2" stroke-miterlimit="10" stroke-linecap="round" stroke-linejoin="round"></path> <path d="M169.17 16.3016C171.026 16.3666 171.662 14.3241 173.586 14.2837C183.01 14.0864 173.598 20.5435 174.083 23.4949C174.521 26.1627 178.738 27.4376 179.188 30.1774C179.98 34.9951 173.036 41.3516 168.06 40.7467C157.015 39.4043 143.218 13.6102 160.238 10.8139C164.896 10.0487 165.715 16.1808 169.17 16.3016Z" fill="#0033CC" stroke="#0033CC" stroke-width="2" stroke-miterlimit="10" stroke-linecap="round" stroke-linejoin="round"></path> <path d="M170.137 40.9876C171.418 41.106 171.934 44.1073 172.969 45.1345C182.929 55.0104 154.61 61.6495 165.583 66.4701C167.678 67.3908 172.072 62.2106 173.224 60.9383C179.261 54.2682 183.81 51.572 178.05 43.4422C177.15 42.1727 174.351 39.3571 172.856 39.2189" fill="#0033CC"></path> <path d="M170.137 40.9876C171.418 41.106 171.934 44.1073 172.969 45.1345C182.929 55.0104 154.61 61.6495 165.583 66.4701C167.678 67.3908 172.072 62.2106 173.224 60.9383C179.261 54.2682 183.81 51.572 178.05 43.4422C177.15 42.1727 174.351 39.3571 172.856 39.2189" stroke="#0033CC" stroke-width="2" stroke-miterlimit="10" stroke-linecap="round" stroke-linejoin="round"></path> <path d="M181.289 47.8428C182.256 49.2072 181.685 52.6573 179.764 53.4054Z" fill="#0033CC"></path> <path d="M181.289 47.8428C182.256 49.2072 181.685 52.6573 179.764 53.4054" stroke="#0033CC" stroke-width="2" stroke-miterlimit="10" stroke-linecap="round" stroke-linejoin="round"></path> <path d="M164.767 62.3213C163.629 63.27 159.789 65.4672 161.169 64.9296C162.041 64.5899 165.292 61.8829 164.767 62.3213Z" fill="#0033CC" stroke="#0033CC" stroke-width="2" stroke-miterlimit="10" stroke-linecap="round" stroke-linejoin="round"></path> <path d="M150.118 75.924C141.576 81.2295 128.532 91.2498 122.133 98.9517C121.172 100.107 113.151 104.664 114.476 106.472C116.665 109.458 123.709 104.562 125.231 102.731C126.246 101.509 128.93 100.882 128.93 100.882C128.93 100.882 133.027 93.7782 136.031 91.1828C139.096 88.5366 141.92 85.6172 144.937 82.8868C145.748 82.1519 146.412 81.1109 147.112 80.2679C147.608 79.6714 148.972 77.7869 148.476 78.3834C142.049 86.1203 135.648 91.832 128.573 98.4663" fill="#0033CC"></path> <path d="M150.118 75.924C141.576 81.2295 128.532 91.2498 122.133 98.9517C121.172 100.107 113.151 104.664 114.476 106.472C116.665 109.458 123.709 104.562 125.231 102.731C126.246 101.509 128.93 100.882 128.93 100.882C128.93 100.882 133.027 93.7782 136.031 91.1828C139.096 88.5366 141.92 85.6172 144.937 82.8868C145.748 82.1519 146.412 81.1109 147.112 80.2679C147.608 79.6714 148.972 77.7869 148.476 78.3834C142.049 86.1203 135.648 91.832 128.573 98.4663" stroke="#0033CC" stroke-width="2" stroke-miterlimit="10" stroke-linecap="round" stroke-linejoin="round"></path> <path d="M128.93 92.9579C124.678 95.599 116.715 105.669 111.193 104.378Z" fill="#0033CC"></path> <path d="M128.93 92.9579C124.678 95.599 116.715 105.669 111.193 104.378" stroke="#0033CC" stroke-width="2" stroke-miterlimit="10" stroke-linecap="round" stroke-linejoin="round"></path> <path d="M178.058 49.0544C162.293 65.3451 143.051 77.6041 126.539 92.8722C123.202 95.9574 119.185 99.8008 114.889 101.312C113.767 101.706 107.88 101.196 107.991 101.942C108.446 104.995 117.439 107.444 119.159 106.778C121.515 105.865 124.399 103.13 126.496 101.723C128.457 100.408 126.021 102.066 127.207 101.448C127.665 101.209 127.879 101.01 128.402 100.826" fill="#0033CC"></path> <path d="M178.058 49.0544C162.293 65.3451 143.051 77.6041 126.539 92.8722C123.202 95.9574 119.185 99.8008 114.889 101.312C113.767 101.706 107.88 101.196 107.991 101.942C108.446 104.995 117.439 107.444 119.159 106.778C121.515 105.865 124.399 103.13 126.496 101.723C128.457 100.408 126.021 102.066 127.207 101.448C127.665 101.209 127.879 101.01 128.402 100.826" stroke="#0033CC" stroke-width="2" stroke-miterlimit="10" stroke-linecap="round" stroke-linejoin="round"></path> <path d="M141.202 27.958C141.202 32.2984 149.969 40.8487 153.087 43.9665" stroke="#0033CC" stroke-width="2" stroke-miterlimit="10" stroke-linecap="round" stroke-linejoin="round"></path> <path d="M127.09 25.5347C127.09 33.0971 145.979 53.8829 151.831 59.7346" stroke="#0033CC" stroke-width="2" stroke-miterlimit="10" stroke-linecap="round" stroke-linejoin="round"></path> <path d="M119.611 33.5548C119.611 44.652 133.955 55.2087 138.53 64.359" stroke="#0033CC" stroke-width="2" stroke-miterlimit="10" stroke-linecap="round" stroke-linejoin="round"></path> <path d="M97 51C97 62.0972 111.344 72.6539 115.919 81.8042" stroke="#0033CC" stroke-width="2" stroke-miterlimit="10" stroke-linecap="round" stroke-linejoin="round"></path> <path d="M106 39C109.94 50.8173 120.477 65.3616 129.286 74.1702" stroke="#0033CC" stroke-width="2" stroke-miterlimit="10" stroke-linecap="round" stroke-linejoin="round"></path> <path d="M156.229 111.11C164.076 104.7 168.124 127.883 166.672 129.285C164.764 131.128 156.284 130.523 153.639 131.206C149.705 132.22 145.282 133.885 141.82 135.905C138.844 137.642 136.977 140.417 134.819 143.157C134.529 143.526 131.301 148.589 130.84 148.113C130.24 147.491 129.931 145.914 129.688 144.961C129.049 142.472 129.292 139.966 129.207 137.94C128.54 121.835 134.06 121.205 147.359 114.945C150 113.702 156.576 110.187 159.549 111.523" fill="#0033CC"></path> <path d="M156.229 111.11C164.076 104.7 168.124 127.883 166.672 129.285C164.764 131.128 156.284 130.523 153.639 131.206C149.705 132.22 145.282 133.885 141.82 135.905C138.844 137.642 136.977 140.417 134.819 143.157C134.529 143.526 131.301 148.589 130.84 148.113C130.24 147.491 129.931 145.914 129.688 144.961C129.049 142.472 129.292 139.966 129.207 137.94C128.54 121.835 134.06 121.205 147.359 114.945C150 113.702 156.576 110.187 159.549 111.523" stroke="#0033CC" stroke-width="2" stroke-miterlimit="10" stroke-linecap="round" stroke-linejoin="round"></path> <path d="M129.438 143.464C129.438 143.464 140.816 219.301 194.418 228.643C194.418 228.643 211.393 231.239 216.82 228.389L225.318 218.701C225.318 218.701 216.067 205.581 222.216 187.553C222.216 187.553 172.183 168.578 166.889 125.068" stroke="#0033CC" stroke-width="2" stroke-miterlimit="10" stroke-linecap="round" stroke-linejoin="round"></path> <path d="M195.833 229.322C195.833 229.322 152.629 239.819 131.888 230.976C111.149 222.134 96.9676 203.299 90.3828 205.577C83.7981 207.854 73.2157 226.383 73.5701 232.605C73.9246 238.829 104.612 276.743 118.842 280.476C144.338 287.163 157.651 284.743 181.153 284.52C181.153 284.52 206.95 238.885 216.937 228.848" stroke="#0033CC" stroke-width="2" stroke-miterlimit="10" stroke-linecap="round" stroke-linejoin="round"></path> <path d="M74.5772 235.03C74.5738 234.949 74.5704 234.869 74.5671 234.789" stroke="#0033CC" stroke-width="2" stroke-miterlimit="10" stroke-linecap="round" stroke-linejoin="round"></path> <path d="M74.4348 234.429C74.3931 233.429 74.002 232.568 74.0727 231.544C74.3059 228.166 76.8802 225.355 78.2206 222.369C80.7343 216.77 84.0897 211.538 88.9015 207.605C92.4321 204.719 99.0843 210.158 102.023 212.253C103.205 213.095 106.344 213.636 106.613 215.082C106.67 215.395 102.486 218.997 102.08 219.38C98.8555 222.418 96.7481 225.95 94.2908 229.612C91.061 234.426 89.3509 240.647 87.304 246.034C86.7906 247.385 86.0709 249.247 86.2891 250.668C86.294 250.699 86.3276 251.047 86.2465 251.093C86.095 251.176 85.9391 250.926 85.8117 250.808C84.6364 249.727 84.1268 248.099 82.9342 247.002C79.0795 243.456 74.7869 237.072 74.5602 231.645" fill="#0033CC"></path> <path d="M74.4348 234.429C74.3931 233.429 74.002 232.568 74.0727 231.544C74.3059 228.166 76.8802 225.355 78.2206 222.369C80.7343 216.77 84.0897 211.538 88.9015 207.605C92.4321 204.719 99.0843 210.158 102.023 212.253C103.205 213.095 106.344 213.636 106.613 215.082C106.67 215.395 102.486 218.997 102.08 219.38C98.8555 222.418 96.7481 225.95 94.2908 229.612C91.061 234.426 89.3509 240.647 87.304 246.034C86.7906 247.385 86.0709 249.247 86.2891 250.668C86.294 250.699 86.3276 251.047 86.2465 251.093C86.095 251.176 85.9391 250.926 85.8117 250.808C84.6364 249.727 84.1268 248.099 82.9342 247.002C79.0795 243.456 74.7869 237.072 74.5602 231.645" stroke="#0033CC" stroke-width="2" stroke-miterlimit="10" stroke-linecap="round" stroke-linejoin="round"></path> <path d="M39.7112 192.307C39.7112 192.307 66.0054 222.055 73.0222 226.833L88.2501 212.053L91.5345 208.769C91.5345 208.769 93.4754 214.143 84.9656 201.752C76.4559 189.36 77.501 185.479 74.5152 172.939C71.5293 160.398 66.4533 159.203 63.7661 165.026C61.0788 170.849 62.721 189.66 62.721 189.66" stroke="#0033CC" stroke-width="2" stroke-miterlimit="10" stroke-linecap="round" stroke-linejoin="round"></path> <path d="M59.7242 185.61C54.0212 189.108 48.2165 190.616 41.1716 190.616C19.6458 190.616 4 171.412 4 148.381C4 125.35 21.4501 106.68 42.9759 106.68C64.5016 106.68 81.9518 125.35 81.9518 148.381C81.9518 157.07 81.7581 163.925 77.5096 170.604" stroke="#0033CC" stroke-width="7" stroke-miterlimit="10" stroke-linecap="round" stroke-linejoin="round"></path> <path d="M81.1269 169.219C80.3567 170.548 78.3754 174.865 77.3641 176.041C77.2748 176.145 75.8083 178.435 75.6507 178.402C75.4861 178.369 76.4738 176.645 76.4847 176.547C76.6334 175.237 76.6032 173.848 76.4105 172.53C76.3578 172.169 76.3042 171.843 76.235 171.504C76.1984 171.325 76.0768 170.81 76.0398 170.99C75.8056 172.124 75.7516 173.674 75.983 174.809" stroke="#0033CC" stroke-width="2" stroke-miterlimit="10" stroke-linecap="round" stroke-linejoin="round"></path> <path d="M57.6716 184.12C58.8817 183.358 60.1084 182.347 60.9447 181.196C61.2895 180.721 61.4297 180.187 61.7284 179.695C61.8404 179.51 62.4446 177.037 62.4202 177.252C62.0587 180.431 60.8417 184.104 60.7299 184.86" stroke="#0033CC" stroke-width="2" stroke-miterlimit="10" stroke-linecap="round" stroke-linejoin="round"></path> <path d="M36.0861 165.195C33.0907 164.365 26.815 160.181 27.3409 156.51C27.8363 153.053 31.3142 150.367 34.2477 148.653C34.4517 148.534 35.3391 148.35 35.4643 148.613C35.9644 149.659 29.9026 154.768 30.5939 157.66C31.0688 159.647 34.072 162.894 35.4918 164.436C35.6292 164.585 36.3114 165.257 36.0861 165.195Z" fill="#0033CC" stroke="#0033CC" stroke-width="2" stroke-miterlimit="10" stroke-linecap="round" stroke-linejoin="round"></path> <path d="M44.2802 134.854C43.3031 133.775 47.3785 131.914 48.2871 131.356C50.8444 129.787 54.4618 127.85 56.6874 131.475C58.2793 134.069 59.5956 137.865 59.6976 140.93C59.7021 141.063 59.6632 141.796 59.4785 141.846C56.4788 142.662 55.6574 131.872 52.1756 132.704C50.326 133.146 45.5016 136.203 44.2802 134.854Z" fill="#0033CC" stroke="#0033CC" stroke-width="2" stroke-miterlimit="10" stroke-linecap="round" stroke-linejoin="round"></path> <path d="M31.0904 155.036C40.9399 155.761 43.3156 152.864 47.0411 144.442C47.7042 142.943 50.3335 129.191 53.8058 133.215C55.0151 134.616 52.4269 139.857 51.9295 141.334C49.8402 147.539 49.0857 154.949 41.9505 157.071C38.2301 158.177 33.5504 157.094 29.8664 156.355C29.5367 156.289 29.2726 156.357 29.5931 155.945" fill="#0033CC"></path> <path d="M31.0904 155.036C40.9399 155.761 43.3156 152.864 47.0411 144.442C47.7042 142.943 50.3335 129.191 53.8058 133.215C55.0151 134.616 52.4269 139.857 51.9295 141.334C49.8402 147.539 49.0857 154.949 41.9505 157.071C38.2301 158.177 33.5504 157.094 29.8664 156.355C29.5367 156.289 29.2726 156.357 29.5931 155.945" stroke="#0033CC" stroke-width="2" stroke-miterlimit="10" stroke-linecap="round" stroke-linejoin="round"></path> <path d="M25.1718 123.357C26.5686 125.205 28.0896 127.017 29.6135 128.739" stroke="#0033CC" stroke-width="2" stroke-miterlimit="10" stroke-linecap="round" stroke-linejoin="round"></path> <path d="M64.4386 131.547C65.3834 130.901 68.5227 129.614 68.8758 128.736" stroke="#0033CC" stroke-width="2" stroke-miterlimit="10" stroke-linecap="round" stroke-linejoin="round"></path> <path d="M52.4648 164.8C54.1295 166.682 55.0492 169.848 56.6299 171.939" stroke="#0033CC" stroke-width="2" stroke-miterlimit="10" stroke-linecap="round" stroke-linejoin="round"></path> <path d="M21.323 173.248C21.3305 173.342 21.3382 173.436 21.3457 173.529" stroke="#0033CC" stroke-width="2" stroke-miterlimit="10" stroke-linecap="round" stroke-linejoin="round"></path> <path d="M21.2557 173.05C22.7819 170.723 24.7943 167.834 25.829 165.265" stroke="#0033CC" stroke-width="2" stroke-miterlimit="10" stroke-linecap="round" stroke-linejoin="round"></path> <path d="M368.105 185.265C368.105 185.265 420.383 180.83 434.853 118.049C434.853 118.049 433.57 102.348 467.527 120.617C489.285 132.322 445.761 204.123 424.72 217.566C416.448 222.851 409.096 228.595 402.891 228.365C390.894 227.921 383.131 224.689 373.022 221.472L367.277 209.984L368.105 185.265Z" stroke="#0033CC" stroke-width="2" stroke-miterlimit="10" stroke-linecap="round" stroke-linejoin="round"></path> <path d="M440.521 112.845C435.41 112.693 433.467 122.039 432.767 125.924C432.627 126.696 431.254 129.494 431.603 130.189C432.298 131.574 430.048 131.715 431.171 132.158C432.216 132.569 438.266 132.842 439.358 133.166C443.445 134.382 447.429 134.95 451.213 136.406C454.206 137.558 457.76 138.846 460.801 139.796C462.818 140.425 464.292 141.613 466.334 142.344C467.775 142.859 469.562 144.249 470.76 145.145C470.914 145.26 471.066 145.601 471.224 145.491C472.289 144.752 472.116 136.289 472.088 134.855C472.061 133.446 472.491 131.994 472.464 130.579C472.433 128.941 470.691 124.905 469.615 123.749C467.676 121.662 465.087 119.595 462.379 118.627C460.936 118.111 459.44 117.913 458.009 117.313C452.342 114.937 446.658 113.025 440.521 112.845Z" fill="#0033CC" stroke="#0033CC" stroke-width="2" stroke-miterlimit="10" stroke-linecap="round" stroke-linejoin="round"></path> <path d="M443.933 113.681C443.933 113.681 446.554 91.5855 441.238 84.9557C435.922 78.3258 428.503 67.8362 439.039 67.0793C449.574 66.3225 450.048 81.8687 456.938 85.5108C463.829 89.153 469.057 89.4767 472.078 82.76C472.078 82.76 471.577 110.566 463.781 118.89C455.984 127.213 443.933 113.681 443.933 113.681Z" stroke="#0033CC" stroke-width="2" stroke-miterlimit="10" stroke-linecap="round" stroke-linejoin="round"></path> <path d="M433.366 73.0379L406.432 60.37C406.432 60.37 396.461 57.0588 404.255 41.2441C412.048 25.4295 416.162 18.2624 427.179 24.7377C438.195 31.213 476.842 52.546 476.842 52.546C476.842 52.546 486.611 56.7409 482.324 65.3425C477.249 75.5246 471.956 83.4884 471.956 83.4884" stroke="#0033CC" stroke-width="2" stroke-miterlimit="10" stroke-linecap="round" stroke-linejoin="round"></path> <path d="M402.836 45.1681C403.323 46.8157 403.738 49.0114 404.874 50.3808C410.363 56.9919 419.933 60.7946 427.721 64.2201C429.478 64.9923 431.34 65.8472 433.17 66.3193C433.562 66.4206 436.017 67.2677 436.245 67.5123C436.422 67.7016 434.893 67.1409 434.792 67.2003C434.304 67.4883 433.965 68.0197 433.696 68.5148C433.229 69.3756 431.834 70.4991 431.98 71.4979C431.986 71.5394 431.901 72.0137 431.888 72.0203C431.545 72.2011 430.141 71.1675 429.857 71.013C427.755 69.8713 425.639 68.8158 423.469 67.8306C418.67 65.6518 414.188 62.4217 409.259 60.5913C407.574 59.9653 403.707 57.7219 403.15 55.8416C402.424 53.3908 402.361 51.4452 402.448 48.8719" fill="#0033CC"></path> <path d="M402.836 45.1681C403.323 46.8157 403.738 49.0114 404.874 50.3808C410.363 56.9919 419.933 60.7946 427.721 64.2201C429.478 64.9923 431.34 65.8472 433.17 66.3193C433.562 66.4206 436.017 67.2677 436.245 67.5123C436.422 67.7016 434.893 67.1409 434.792 67.2003C434.304 67.4883 433.965 68.0197 433.696 68.5148C433.229 69.3756 431.834 70.4991 431.98 71.4979C431.986 71.5394 431.901 72.0137 431.888 72.0203C431.545 72.2011 430.141 71.1675 429.857 71.013C427.755 69.8713 425.639 68.8158 423.469 67.8306C418.67 65.6518 414.188 62.4217 409.259 60.5913C407.574 59.9653 403.707 57.7219 403.15 55.8416C402.424 53.3908 402.361 51.4452 402.448 48.8719" stroke="#0033CC" stroke-width="2" stroke-miterlimit="10" stroke-linecap="round" stroke-linejoin="round"></path> <path d="M447.881 72.2515C452.565 74.7951 457.904 78.6575 462.957 80.5337C464.95 81.2738 466.822 82.4459 468.921 82.9133C469.159 82.9663 470.707 83.2078 470.664 83.5731C470.604 84.079 469.935 84.1909 469.62 84.4388C467.935 85.7695 466.008 86.4191 463.812 86.3447C457.109 86.1177 454.91 81.5286 451.56 76.7313" fill="#0033CC"></path> <path d="M447.881 72.2515C452.565 74.7951 457.904 78.6575 462.957 80.5337C464.95 81.2738 466.822 82.4459 468.921 82.9133C469.159 82.9663 470.707 83.2078 470.664 83.5731C470.604 84.079 469.935 84.1909 469.62 84.4388C467.935 85.7695 466.008 86.4191 463.812 86.3447C457.109 86.1177 454.91 81.5286 451.56 76.7313" stroke="#0033CC" stroke-width="2" stroke-miterlimit="10" stroke-linecap="round" stroke-linejoin="round"></path> <path d="M460.785 81.7387C461.796 79.8783 463.564 78.0234 464.766 76.1666C465.871 74.4584 466.728 72.5538 467.542 70.704C469.141 67.0673 471.276 63.6528 473.154 60.1936C474.054 58.5365 474.936 53.3608 477.381 53.9916C478.532 54.2885 479.329 55.8249 480.032 56.672C485.43 63.1752 477.213 72.1604 473.621 77.4426C472.674 78.8348 472.336 80.7264 471.326 82.0205C470.922 82.539 468.292 83.4283 469.528 84.0997" fill="#0033CC"></path> <path d="M460.785 81.7387C461.796 79.8783 463.564 78.0234 464.766 76.1666C465.871 74.4584 466.728 72.5538 467.542 70.704C469.141 67.0673 471.276 63.6528 473.154 60.1936C474.054 58.5365 474.936 53.3608 477.381 53.9916C478.532 54.2885 479.329 55.8249 480.032 56.672C485.43 63.1752 477.213 72.1604 473.621 77.4426C472.674 78.8348 472.336 80.7264 471.326 82.0205C470.922 82.539 468.292 83.4283 469.528 84.0997" stroke="#0033CC" stroke-width="2" stroke-miterlimit="10" stroke-linecap="round" stroke-linejoin="round"></path> <path d="M474.898 51.9429C474.873 52.7156 475.296 53.5011 475.345 54.2858C475.416 55.44 475.027 56.6049 475.077 57.7684" fill="#0033CC"></path> <path d="M474.898 51.9429C474.873 52.7156 475.296 53.5011 475.345 54.2858C475.416 55.44 475.027 56.6049 475.077 57.7684" stroke="#0033CC" stroke-width="2" stroke-miterlimit="10" stroke-linecap="round" stroke-linejoin="round"></path> <path d="M399.378 228.35C399.378 228.35 448.692 248.471 487.104 220.96C525.514 193.449 505.3 211.124 517.045 220.976C528.789 230.828 534.284 237.687 511.94 256.772C489.596 275.857 466.964 296.062 416.391 284.718C416.391 284.718 383.053 229.047 373.188 221.541" stroke="#0033CC" stroke-width="2" stroke-miterlimit="10" stroke-linecap="round" stroke-linejoin="round"></path> <path d="M525.606 228.498C525.606 228.498 563.441 201.381 567.028 179.577C570.614 157.774 554.648 170.389 547.808 171.869C540.968 173.349 534.747 169.376 533.07 163.722C531.393 158.067 523.319 157.263 523.405 175.735C523.489 194.207 518.172 205.724 513.099 209.719" stroke="#0033CC" stroke-width="2" stroke-miterlimit="10" stroke-linecap="round" stroke-linejoin="round"></path> <path d="M571.522 119.057C568.405 118.369 560.54 117.106 555.712 117.579C548.42 118.293 547.833 116.076 540.79 119.242C533.746 122.408 532.436 140.954 531.933 151.995C531.701 157.067 533.7 167.407 539.231 169.672C547.716 173.145 553.273 166.758 561.358 165.52C563.658 165.168 568.04 167.824 567.527 169.752C565.868 175.98 573.389 151.708 573.593 147.221C573.899 140.497 576.541 133.502 576.036 126.8C575.928 125.364 576.155 124.168 575.577 122.868C575 121.568 574.637 119.746 571.522 119.057Z" fill="#0033CC" stroke="#0033CC" stroke-width="2" stroke-miterlimit="10" stroke-linecap="round" stroke-linejoin="round"></path> <path d="M534.909 128.024C531.702 128.713 528.15 127.499 524.81 128.437C517.079 130.611 507.745 140.957 514.17 148.678C517.938 153.204 523.573 152.021 528.414 150.301C529.195 150.023 533.795 147.86 533.207 146.266C533.092 145.953 529.856 147.142 529.508 147.216C526.411 147.882 521.486 146.79 521.363 142.917C521.167 136.74 527.097 132.032 533.01 132.452C533.606 132.495 535.603 132.561 535.966 132.949" fill="#0033CC"></path> <path d="M534.909 128.024C531.702 128.713 528.15 127.499 524.81 128.437C517.079 130.611 507.745 140.957 514.17 148.678C517.938 153.204 523.573 152.021 528.414 150.301C529.195 150.023 533.795 147.86 533.207 146.266C533.092 145.953 529.856 147.142 529.508 147.216C526.411 147.882 521.486 146.79 521.363 142.917C521.167 136.74 527.097 132.032 533.01 132.452C533.606 132.495 535.603 132.561 535.966 132.949" stroke="#0033CC" stroke-width="2" stroke-miterlimit="10" stroke-linecap="round" stroke-linejoin="round"></path> <path d="M510.433 206.894C508.726 205.562 497.06 213.589 494.916 215.29C494.328 215.756 491.324 218.117 489.751 219.403C489.119 219.919 491.642 218.234 495.564 220.955C499.486 223.677 503.568 226.906 505.44 230.287C508.545 235.898 510.81 241.963 512.98 247.926C513.305 248.82 514.059 253.314 514.771 253.646C515.389 253.935 518.388 250.913 519.052 250.387C520.961 248.873 522.122 247.161 523.879 245.047C525.634 242.933 525.235 243.024 526.076 241.93C526.926 240.825 526.894 238.816 527.069 237.297C528.057 228.718 518.201 224.361 514.143 217.889C512.272 214.905 512.636 208.613 510.433 206.894Z" fill="#0033CC" stroke="#0033CC" stroke-width="2" stroke-miterlimit="10" stroke-linecap="round" stroke-linejoin="round"></path> </svg> 