<?xml version="1.0" encoding="UTF-8"?> <svg xmlns="http://www.w3.org/2000/svg" viewBox="0 0 1838.31 677.31"> <defs> <style>.cls-1{fill:#e6ecfe;}</style> </defs> <g id="Слой_2" data-name="Слой 2"> <g id="Слой_6" data-name="Слой 6"> <path class="cls-1" d="M1838.31,147.59c-81.91,9.29-106.47,55.19-127.15,77.33-23.45,25.1-71.33,32.61-119.89,36.66a293.2,293.2,0,0,1-71.34-3c-69.86-10.35-301-44.57-415.16,58.45-37.66,34-37.42,60.18-89.17,93.14-9.88,6.29-38.25,23.4-121.88,45.58-93.93,24.92-89,11.52-138.71,28.73-82.08,28.43-144,81.75-180.33,113-35.56,30.59-31.24,32.83-51.52,45.58-66.13,41.56-139.68,35.16-179.34,31.7C305,671.38,262,667.63,214,640.07,191.21,627,118.34,585.14,104,517.21c-3.32-15.74-4.09-35.75-18.83-59.45C71.77,436.15,59.5,432,44.59,417.14,6.44,379.06-9.79,309.72,10.9,262.57,22.12,237,34,242.74,48.55,212c22.65-47.88,14.22-92.62,10.9-108.93C48,46.68,13.37,12.1,0,0Z"></path> </g> </g> </svg> 