<?xml version="1.0" encoding="UTF-8"?> <svg xmlns="http://www.w3.org/2000/svg" viewBox="0 0 304.34 292.64"> <defs> <style>.cls-1{fill:#f2dcdd;}</style> </defs> <g id="Слой_2" data-name="Слой 2"> <g id="Слой_6" data-name="Слой 6"> <path class="cls-1" d="M.73,158.3c-1.84.65.36,3.53.54,4.58l-.54,8C.87,233.35,32.39,246.31,84,274.28c70.93,38.47,160.6,11.17,194.53-32.9a120.53,120.53,0,0,0,11.56-18.62C313.61,175.22,301,113.83,301,113.83,294.38,82,284.18,32.53,241.5,10.72,214.62-3,182.66-2,154.05,5.16,135,9.94,117.78,16,103.54,29.75c-13,12.6-23.35,27.9-32.56,43.39C44.54,117.62,34,146.6.73,158.3Z"></path> </g> </g> </svg> 