<?xml version="1.0" encoding="UTF-8"?> <svg xmlns="http://www.w3.org/2000/svg" viewBox="0 0 804.82 382.06"> <defs> <style>.cls-1{fill:#f2f4f5;}</style> </defs> <g id="Слой_2" data-name="Слой 2"> <g id="Слой_2-2" data-name="Слой 2"> <path class="cls-1" d="M624,3.11C629.23,20,618,36.94,637.37,60c22.85,27.15,62.77,19.88,93.34,30.24,37.56,12.74,66.16,51,72.81,89.5,5.39,31.18-6.36,60.26-29,81.58-28.2,26.53-65,45.24-100.14,60.68-140,61.48-293.87,77.11-442.59,40.63a644.5,644.5,0,0,1-105.67-35.4C98.28,315,71.44,299.65,49.75,278.38,14.21,243.52,0,193.08,0,144.37A275.63,275.63,0,0,1,10.11,71.23C12.33,63.2,31.34,0,38.37,0Z"></path> </g> </g> </svg> 